<?xml version='1.0' encoding='utf-8'?>
<!DOCTYPE svg PUBLIC '-//W3C//DTD SVG 1.1//EN' 'http://www.w3.org/Graphics/SVG/1.1/DTD/svg11.dtd'>
<svg version="1.1" xmlns="http://www.w3.org/2000/svg" viewBox="0 0 512 512" xmlns:xlink="http://www.w3.org/1999/xlink" enable-background="new 0 0 512 512">
  <g>
    <g fill="#231F20">
      <path d="m431.2,259c0-62-32.4-116.6-81.1-147.7l18.2-27.3c3.2-4.8 1.9-11.3-2.9-14.5-4.8-3.2-11.3-1.9-14.5,2.9l-19.1,28.6c-12.5-6-25.8-10.6-39.7-13.5 6.7-8.1 10.7-18.4 10.7-29.7 0-25.8-21-46.8-46.8-46.8-25.8,0-46.8,21-46.8,46.8 0,11.3 4,21.6 10.7,29.7-13.9,2.9-27.2,7.5-39.7,13.5l-19.2-28.5c-3.2-4.8-9.7-6.1-14.5-2.9-4.8,3.2-6.1,9.7-2.9,14.5l18.2,27.2c-48.7,31.1-81,85.7-81,147.7 0,69.3 40.4,129.3 98.9,157.7l-36.5,69c-2.7,5.1-0.8,11.4 4.3,14.1 5.1,2.7 11.4,0.7 14.1-4.3l11.8-22.3h165.2l11.8,22.3c2.7,5.1 9,7 14.1,4.3 5.1-2.7 7-9 4.3-14.1l-36.5-69c58.5-28.4 98.9-88.4 98.9-157.7zm-175.2-227.1c14.3-7.10543e-15 26,11.6 26,26 0,14.3-11.6,26-26,26-14.3,0-26-11.6-26-26 0-14.4 11.7-26 26-26zm71.6,420.4h-143.2l14.6-27.5c17.9,6.2 37.1,9.5 57,9.5 20,0 39.1-3.4 57-9.5l14.6,27.5zm-71.6-38.9c-85.1,0-154.4-69.3-154.4-154.4 0-85.1 69.3-154.4 154.4-154.4 85.1,0 154.4,69.3 154.4,154.4 0,85.1-69.3,154.4-154.4,154.4z"/>
      <path d="m336.1,248.6h-69.7v-120.4c0-5.8-4.7-10.4-10.4-10.4-5.8,0-10.4,4.7-10.4,10.4v130.8c0,5.8 4.7,10.4 10.4,10.4h80.1c5.8,0 10.4-4.7 10.4-10.4 0-5.7-4.6-10.4-10.4-10.4z"/>
    </g>
  </g>
</svg>
