<?xml version='1.0' encoding='utf-8'?>
<!DOCTYPE svg PUBLIC '-//W3C//DTD SVG 1.1//EN' 'http://www.w3.org/Graphics/SVG/1.1/DTD/svg11.dtd'>
<svg version="1.1" xmlns="http://www.w3.org/2000/svg" viewBox="0 0 512 512" xmlns:xlink="http://www.w3.org/1999/xlink" enable-background="new 0 0 512 512">
  <g>
    <g fill="#231F20">
      <path d="m152.4,31.2h-131c-5.8,0-10.4,4.7-10.4,10.4v428.8c0,5.8 4.7,10.4 10.4,10.4h131c5.8,0 10.4-4.7 10.4-10.4v-428.8c0-5.8-4.6-10.4-10.4-10.4zm-10.4,428.8h-110.1v-408h110.1v408z"/>
      <path d="m86.9,416.7c21.6,0 39.1-17.6 39.1-39.1 0-21.6-17.6-39.1-39.1-39.1-21.6,0-39.1,17.6-39.1,39.1-7.10543e-15,21.5 17.5,39.1 39.1,39.1zm0-57.5c10.1,0 18.3,8.2 18.3,18.3 0,10.1-8.2,18.3-18.3,18.3s-18.3-8.2-18.3-18.3c-1.42109e-14-10.1 8.2-18.3 18.3-18.3z"/>
      <path d="m58.2,116.2h57.4c5.8,0 10.4-4.7 10.4-10.4s-4.7-10.4-10.4-10.4h-57.4c-5.8,0-10.4,4.7-10.4,10.4s4.6,10.4 10.4,10.4z"/>
      <path d="M58.2,173.6h57.4c5.8,0,10.4-4.7,10.4-10.4c0-5.8-4.7-10.4-10.4-10.4H58.2c-5.8,0-10.4,4.7-10.4,10.4    C47.8,169,52.4,173.6,58.2,173.6z"/>
      <path d="m321.5,31.2h-131c-5.8,0-10.4,4.7-10.4,10.4v428.8c0,5.8 4.7,10.4 10.4,10.4h131c5.8,0 10.4-4.7 10.4-10.4v-428.8c0-5.8-4.7-10.4-10.4-10.4zm-10.4,428.8h-110.2v-408h110.1v408z"/>
      <path d="m256,416.7c21.6,0 39.1-17.6 39.1-39.1 0-21.6-17.6-39.1-39.1-39.1-21.6,0-39.2,17.6-39.2,39.1 0,21.5 17.6,39.1 39.2,39.1zm0-57.5c10.1,0 18.3,8.2 18.3,18.3 0,10.1-8.2,18.3-18.3,18.3-10.1,0-18.3-8.2-18.3-18.3 0-10.1 8.2-18.3 18.3-18.3z"/>
      <path d="m227.3,116.2h57.4c5.8,0 10.4-4.7 10.4-10.4s-4.7-10.4-10.4-10.4h-57.4c-5.8,0-10.4,4.7-10.4,10.4s4.6,10.4 10.4,10.4z"/>
      <path d="m227.3,173.6h57.4c5.8,0 10.4-4.7 10.4-10.4 0-5.8-4.7-10.4-10.4-10.4h-57.4c-5.8,0-10.4,4.7-10.4,10.4-0.1,5.8 4.6,10.4 10.4,10.4z"/>
      <path d="m490.6,31.2h-131c-5.8,0-10.4,4.7-10.4,10.4v428.8c0,5.8 4.7,10.4 10.4,10.4h131c5.8,0 10.4-4.7 10.4-10.4v-428.8c0-5.8-4.7-10.4-10.4-10.4zm-10.5,428.8h-110.1v-408h110.1v408z"/>
      <path d="m425.1,416.7c21.6,0 39.1-17.6 39.1-39.1 0-21.6-17.6-39.1-39.1-39.1s-39.1,17.6-39.1,39.1c-0.1,21.5 17.5,39.1 39.1,39.1zm0-57.5c10.1,0 18.3,8.2 18.3,18.3 0,10.1-8.2,18.3-18.3,18.3-10.1,0-18.3-8.2-18.3-18.3 0-10.1 8.2-18.3 18.3-18.3z"/>
      <path d="m396.4,116.2h57.4c5.8,0 10.4-4.7 10.4-10.4s-4.7-10.4-10.4-10.4h-57.4c-5.8,0-10.4,4.7-10.4,10.4s4.6,10.4 10.4,10.4z"/>
      <path d="m396.4,173.6h57.4c5.8,0 10.4-4.7 10.4-10.4 0-5.8-4.7-10.4-10.4-10.4h-57.4c-5.8,0-10.4,4.7-10.4,10.4-0.1,5.8 4.6,10.4 10.4,10.4z"/>
    </g>
  </g>
</svg>
