<?xml version='1.0' encoding='utf-8'?>
<!DOCTYPE svg PUBLIC '-//W3C//DTD SVG 1.1//EN' 'http://www.w3.org/Graphics/SVG/1.1/DTD/svg11.dtd'>
<svg version="1.1" xmlns="http://www.w3.org/2000/svg" viewBox="0 0 512 512" xmlns:xlink="http://www.w3.org/1999/xlink" enable-background="new 0 0 512 512">
  <g>
    <g fill="#231F20">
      <path d="m375.9,59.7h-56.3v-38.3c0-5.8-4.7-10.4-10.4-10.4h-106.4c-5.8,0-10.4,4.7-10.4,10.4v38.3h-56.3c-5.8,0-10.4,4.7-10.4,10.4v420.4c0,5.8 4.7,10.4 10.4,10.4h239.8c5.8,0 10.4-4.7 10.4-10.4v-420.3c0-5.8-4.6-10.5-10.4-10.5zm-162.7-27.8h85.6v27.9h-85.6v-27.9zm152.3,448.2h-219v-399.5h219v399.5z"/>
      <path d="m172.2,149c0,5.8 4.7,10.4 10.4,10.4h146.8c5.8,0 10.4-4.7 10.4-10.4 0-5.8-4.7-10.4-10.4-10.4h-146.8c-5.8,0-10.4,4.7-10.4,10.4z"/>
      <path d="m329.4,226.2h-146.8c-5.8,0-10.4,4.7-10.4,10.4 0,5.8 4.7,10.4 10.4,10.4h146.8c5.8,0 10.4-4.7 10.4-10.4 5.68434e-14-5.8-4.6-10.4-10.4-10.4z"/>
      <path d="m329.4,313.7h-146.8c-5.8,0-10.4,4.7-10.4,10.4 0,5.8 4.7,10.4 10.4,10.4h146.8c5.8,0 10.4-4.7 10.4-10.4 5.68434e-14-5.7-4.6-10.4-10.4-10.4z"/>
      <path d="m329.4,401.3h-146.8c-5.8,0-10.4,4.7-10.4,10.4 0,5.8 4.7,10.4 10.4,10.4h146.8c5.8,0 10.4-4.7 10.4-10.4 5.68434e-14-5.8-4.6-10.4-10.4-10.4z"/>
    </g>
  </g>
</svg>
