<?xml version='1.0' encoding='utf-8'?>
<!DOCTYPE svg PUBLIC '-//W3C//DTD SVG 1.1//EN' 'http://www.w3.org/Graphics/SVG/1.1/DTD/svg11.dtd'>
<svg version="1.1" xmlns="http://www.w3.org/2000/svg" viewBox="0 0 512 512" xmlns:xlink="http://www.w3.org/1999/xlink" enable-background="new 0 0 512 512">
  <g>
    <g fill="#231F20">
      <path d="m490.6,115.9h-152v-36.3c0-5.8-4.7-10.4-10.4-10.4h-144.3c-5.8,0-10.4,4.7-10.4,10.4v36.3h-152c-5.8,0-10.4,4.7-10.4,10.4v306.1c0,5.8 4.7,10.4 10.4,10.4h469.1c5.8,0 10.4-4.7 10.4-10.4v-306.1c0-5.8-4.7-10.4-10.4-10.4zm-75.7,20.8v285.3h-317.8v-285.3h317.8zm-220.6-46.7h123.4v25.9h-123.4v-25.9zm-162.4,46.7h44.4v285.3h-44.4v-285.3zm448.2,285.3h-44.4v-285.3h44.4v285.3z"/>
      <path d="m256,390.5c61.3,0 111.1-49.8 111.1-111.1 0-61.3-49.8-111.1-111.1-111.1-61.3,0-111.1,49.8-111.1,111.1 0,61.2 49.8,111.1 111.1,111.1zm0-201.4c49.8,0 90.2,40.5 90.2,90.2 0,49.8-40.5,90.2-90.2,90.2-49.8,0-90.2-40.5-90.2-90.2 0-49.7 40.4-90.2 90.2-90.2z"/>
      <path d="m245.7,303.1c-1.8-2.4-3-5.2-3.7-8.4l-15.9,1.7c1.2,8 4,14.2 8.4,18.6 4.4,4.4 10.1,7 17.2,7.9v11.1h8.9v-11.4c7.9-1.1 14.1-4.2 18.6-9.3 4.5-5.1 6.7-11.3 6.7-18.6 0-6.6-1.8-12-5.3-16.2-3.5-4.2-10.2-7.6-20-10.3v-23.9c4,1.7 6.4,5 7.3,9.8l15.5-2c-1.1-6.1-3.5-11-7.3-14.6-3.8-3.6-9-5.9-15.5-6.6v-6h-8.9v6c-7,0.7-12.6,3.3-16.8,7.8-4.2,4.5-6.3,10.2-6.3,16.8 0,6.6 1.9,12.2 5.6,16.8 3.7,4.6 9.6,8.1 17.6,10.4v25.6c-2.3-1.1-4.3-2.8-6.1-5.2zm14.9-17.8c3.7,1.1 6.3,2.6 7.9,4.6 1.6,2 2.4,4.3 2.4,7.1 0,3.1-1,5.7-2.9,8-1.9,2.3-4.4,3.7-7.5,4.2v-23.9zm-14.7-24.6c-1.3-1.9-2-3.9-2-6 0-2.4 0.7-4.5 2.1-6.5 1.4-2 3.3-3.3 5.7-4.2v21.1c-2.5-1-4.5-2.5-5.8-4.4z"/>
    </g>
  </g>
</svg>
