<?xml version='1.0' encoding='utf-8'?>
<!DOCTYPE svg PUBLIC '-//W3C//DTD SVG 1.1//EN' 'http://www.w3.org/Graphics/SVG/1.1/DTD/svg11.dtd'>
<svg version="1.1" xmlns="http://www.w3.org/2000/svg" viewBox="0 0 512 512" xmlns:xlink="http://www.w3.org/1999/xlink" enable-background="new 0 0 512 512">
  <g>
    <g fill="#231F20">
      <path d="m487.1,11h-462.2c-5.8,0-10.4,4.7-10.4,10.4v375.3c0,5.8 4.7,10.4 10.4,10.4h149.4l-26.1,80.2c-2.8,6.1 4.6,18.5 16,11.6l91.7-66.6 91.7,66.6c6.4,5 19.1,0.3 16-11.6l-26.1-80.2h149.4c5.8,0 10.4-4.7 10.4-10.4v-375.3c0.2-5.7-4.4-10.4-10.2-10.4zm-451.8,20.8h441.3v62.9h-441.3v-62.9zm226.8,379.3c-1.8-1.3-7-3.7-12.3,0l-71.8,52.2 27.4-84.4c2.2-7.4-3.6-11.5-3.8-11.7l-71.7-52.2h88.8c4.5,0 8.5-2.9 9.9-7.2l27.4-84.4 27.4,84.4c1.4,4.3 5.4,7.2 9.9,7.2h88.8l-71.8,52.2c-0.2,0.2-6,4.5-3.8,11.7l27.4,84.4-71.8-52.2zm214.6-24.8h-145.8l-2.2-6.7 91.7-66.6c5.8-4.1 6.6-17.7-6.1-18.9h-113.4l-35-107.7c-1.9-7.9-15.4-11.3-19.8,0l-35,107.7h-113.3c-13.9,1.4-11.5,16.3-6.1,18.9l91.7,66.6-2.2,6.7h-145.9v-270.7h441.3v270.7z"/>
      <path d="m107.8,52.9h-31.8c-5.8,0-10.4,4.7-10.4,10.4s4.6,10.4 10.4,10.4h31.9c5.8,0 10.4-4.7 10.4-10.4s-4.7-10.4-10.5-10.4z"/>
      <path d="m199.2,52.9h-31.9c-5.8,0-10.4,4.7-10.4,10.4s4.7,10.4 10.4,10.4h31.9c5.8,0 10.4-4.7 10.4-10.4s-4.6-10.4-10.4-10.4z"/>
      <path d="m436,52.9h-157.8c-5.8,0-10.4,4.7-10.4,10.4s4.7,10.4 10.4,10.4h157.8c5.8,0 10.4-4.7 10.4-10.4s-4.6-10.4-10.4-10.4z"/>
    </g>
  </g>
</svg>
