<?xml version='1.0' encoding='utf-8'?>
<!DOCTYPE svg PUBLIC '-//W3C//DTD SVG 1.1//EN' 'http://www.w3.org/Graphics/SVG/1.1/DTD/svg11.dtd'>
<svg version="1.1" xmlns="http://www.w3.org/2000/svg" viewBox="0 0 512 512" xmlns:xlink="http://www.w3.org/1999/xlink" enable-background="new 0 0 512 512">
  <g>
    <g fill="#231F20">
      <path d="m411.6,350.6h-232v-35.4c0.6-6.4-8.8-15.1-17.8-7.4l-68.8,68.7c-5.7,6.1-2,12.8 0,14.7l68.7,68.7c2.3,3.5 16.4,6.6 17.8-7.4v-35.4h232c5.8,0 10.4-4.7 10.4-10.4v-45.7c0.1-5.7-4.6-10.4-10.3-10.4zm-10.4,45.7h-232c-5.8,0-10.4,4.7-10.4,10.4v20.7l-43.5-43.5 43.5-43.5v20.6c0,5.8 4.7,10.4 10.4,10.4h232v24.9z"/>
      <path d="m100.4,257.7h232v35.4c-0.6,6.4 8.8,15.1 17.8,7.4l68.7-68.7c5.7-6.1 2-12.8 0-14.7l-68.7-68.7c-2.3-3.5-16.4-6.6-17.8,7.4v35.4h-232c-5.8,0-10.4,4.7-10.4,10.4v45.7c2.84217e-14,5.7 4.7,10.4 10.4,10.4zm10.5-45.7h232c5.8,0 10.4-4.7 10.4-10.4v-20.7l43.5,43.5-43.5,43.5v-20.7c0-5.8-4.7-10.4-10.4-10.4h-232v-24.8z"/>
      <path d="M490.6,11H21.4C15.7,11,11,15.7,11,21.4v469.1c0,5.8,4.7,10.4,10.4,10.4h469.1c5.8,0,10.4-4.7,10.4-10.4    V21.4C501,15.7,496.3,11,490.6,11z M480.1,480.1H31.9V128.2h448.3V480.1z M480.1,107.4H31.9V31.9h448.3V107.4z"/>
      <path d="M64.6,80h14.8c5.8,0,10.4-4.7,10.4-10.4c0-5.8-4.7-10.4-10.4-10.4H64.6c-5.8,0-10.4,4.7-10.4,10.4    C54.2,75.4,58.9,80,64.6,80z"/>
      <path d="m133.9,80h14.8c5.8,0 10.4-4.7 10.4-10.4 0-5.8-4.7-10.4-10.4-10.4h-14.8c-5.8,0-10.4,4.7-10.4,10.4 0,5.8 4.6,10.4 10.4,10.4z"/>
      <path d="m264,80h183.4c5.8,0 10.4-4.7 10.4-10.4 0-5.8-4.7-10.4-10.4-10.4h-183.4c-5.8,0-10.4,4.7-10.4,10.4 0,5.8 4.6,10.4 10.4,10.4z"/>
    </g>
  </g>
</svg>
