<?xml version='1.0' encoding='utf-8'?>
<!DOCTYPE svg PUBLIC '-//W3C//DTD SVG 1.1//EN' 'http://www.w3.org/Graphics/SVG/1.1/DTD/svg11.dtd'>
<svg version="1.1" xmlns="http://www.w3.org/2000/svg" viewBox="0 0 512 512" xmlns:xlink="http://www.w3.org/1999/xlink" enable-background="new 0 0 512 512">
  <g>
    <g fill="#231F20">
      <path d="m76.3,85.5h16.6c5.8,0 10.4-4.7 10.4-10.4s-4.7-10.4-10.4-10.4h-16.6c-5.8,0-10.4,4.7-10.4,10.4s4.6,10.4 10.4,10.4z"/>
      <path d="m153.7,85.5h16.6c5.8,0 10.4-4.7 10.4-10.4s-4.7-10.4-10.4-10.4h-16.6c-5.8,0-10.4,4.7-10.4,10.4s4.6,10.4 10.4,10.4z"/>
      <path d="m231.1,85.5h16.6c5.8,0 10.4-4.7 10.4-10.4s-4.7-10.4-10.4-10.4h-16.6c-5.8,0-10.4,4.7-10.4,10.4s4.7,10.4 10.4,10.4z"/>
      <path d="m490.6,11h-469.2c-5.7,0-10.4,4.7-10.4,10.4v107.2 361.9c0,5.8 4.7,10.4 10.4,10.4h470.4c5.1,0 9.2-4.1 9.2-9.2v-470.3c5.68434e-14-5.7-4.7-10.4-10.4-10.4zm-10.5,469.1h-8.5l-143.1-143.2c-2.2-2.2-5.3-3.3-8.4-3-19.2,1.8-38-4.9-51.5-18.5-15-15-21.3-36.4-17.6-56.8l30.3,30.3c4.1,4.1 10.7,4.1 14.7,0l36.7-36.7c4.1-4.1 4.1-10.7 0-14.7l-30.3-30.3c20.4-3.7 41.8,2.6 56.8,17.6 13.6,13.6 20.3,32.4 18.5,51.5-0.3,3.1 0.8,6.2 3,8.4l99.6,99.6v95.8zm-.2-125.2l-81.5-81.5c0.9-23.6-8-46.5-24.8-63.3-24.9-24.9-63.2-31.8-95.4-17.1-3.1,1.4-5.3,4.3-5.9,7.6-0.6,3.4 0.5,6.8 2.9,9.2l35.1,35.1-21.9,21.9-35.1-35.1c-2.4-2.4-5.8-3.5-9.2-2.9-3.4,0.6-6.2,2.8-7.6,5.9-14.7,32.1-7.8,70.4 17.1,95.4 16.8,16.8 39.7,25.7 63.3,24.8l125.1,125.1h-410.3v-340.9h448.3v215.8zm-.1-236.7h-448.2v-86.3h448.3v86.3z"/>
    </g>
  </g>
</svg>
