<?xml version='1.0' encoding='utf-8'?>
<!DOCTYPE svg PUBLIC '-//W3C//DTD SVG 1.1//EN' 'http://www.w3.org/Graphics/SVG/1.1/DTD/svg11.dtd'>
<svg version="1.1" xmlns="http://www.w3.org/2000/svg" viewBox="0 0 512 512" xmlns:xlink="http://www.w3.org/1999/xlink" enable-background="new 0 0 512 512">
  <g>
    <g fill="#231F20">
      <path d="m176.8,266.6l182.5,182.4c7.5,8.3 32.3,19.6 51.9,0 19.5-19.5 9-42.9 0-51.9l-182.4-182.5c1.6-17-4.4-33.8-16.6-46-10.5-10.5-22.6-10.5-34.3-10.5-15.4,0-34.6,0-64.6-21.5-8.6-6.2-15.9-3.4-19.6,0.9-13.9,16.4 22.8,98.3 37.1,112.6 12.2,12.1 29.1,18.1 46,16.5zm1-87.7c10.8,0 15.3,0.2 19.6,4.4 8.6,8.6 12.4,21 10.1,33-0.7,3.4 0.4,6.9 2.9,9.4l186.1,186.2c9.1,10.8 3,19.4 0,22.4-6,6-16.4,6-22.4,0l-186.2-186.2c-4.5-4.1-8.7-3-9.4-2.9-12,2.4-24.4-1.4-33-10.1-10.5-10.6-27.5-51.8-33-74.1 29.5,17.9 50.7,17.9 65.3,17.9z"/>
      <path d="M490.6,11H21.4C15.7,11,11,15.7,11,21.4v469.1c0,5.8,4.7,10.4,10.4,10.4h469.1c5.8,0,10.4-4.7,10.4-10.4    V21.4C501,15.7,496.3,11,490.6,11z M480.1,480.1H31.9V112.6h448.3V480.1z M480.1,91.7H31.9V31.9h448.3V91.7z"/>
      <path d="m72.3,72.2h25.8c5.8,0 10.4-4.7 10.4-10.4 0-5.8-4.7-10.4-10.4-10.4h-25.8c-5.8,0-10.4,4.7-10.4,10.4 0,5.7 4.6,10.4 10.4,10.4z"/>
      <path d="m143.2,72.2h25.8c5.8,0 10.4-4.7 10.4-10.4 0-5.8-4.7-10.4-10.4-10.4h-25.8c-5.8,0-10.4,4.7-10.4,10.4 2.84217e-14,5.7 4.6,10.4 10.4,10.4z"/>
      <path d="m273.3,72.2h166.4c5.8,0 10.4-4.7 10.4-10.4 0-5.8-4.7-10.4-10.4-10.4h-166.4c-5.8,0-10.4,4.7-10.4,10.4-0.1,5.7 4.6,10.4 10.4,10.4z"/>
    </g>
  </g>
</svg>
