<?xml version='1.0' encoding='utf-8'?>
<!DOCTYPE svg PUBLIC '-//W3C//DTD SVG 1.1//EN' 'http://www.w3.org/Graphics/SVG/1.1/DTD/svg11.dtd'>
<svg version="1.1" xmlns="http://www.w3.org/2000/svg" viewBox="0 0 512 512" xmlns:xlink="http://www.w3.org/1999/xlink" enable-background="new 0 0 512 512">
  <g>
    <g fill="#231F20">
      <path d="m82.1,336.6c47.9,47.9 110.9,71.9 173.9,71.9 63,0 125.9-24 173.9-71.9l10.6-10.6c7-6.1 16.8-26.5 0-44.4l-10.6-10.6c-95.9-95.9-251.9-95.9-347.8,0l-10.6,10.6c-17.1,19.3-5.9,38.5 0,44.4l10.6,10.6zm4.2-40.3l10.6-10.6c43.9-43.9 101.5-65.8 159.1-65.8s115.3,21.9 159.1,65.8l10.6,10.6c5.9,6.2 2,12.9 0,14.9l-10.6,10.6c-87.8,87.8-230.5,87.8-318.3,0l-10.6-10.6c-1.9-1.9-5.8-8.5 0.1-14.9z"/>
      <path d="M490.6,11H21.4C15.7,11,11,15.7,11,21.4V117v373.6c0,5.8,4.7,10.4,10.4,10.4h469.1    c5.8,0,10.4-4.7,10.4-10.4V117V21.4C501,15.7,496.3,11,490.6,11z M480.1,480.1H31.9V127.4h448.3V480.1z M480.1,106.6H31.9V31.9    h448.3V106.6z"/>
      <path d="m63.1,79.6h30.6c5.8,0 10.4-4.7 10.4-10.4s-4.7-10.4-10.4-10.4h-30.6c-5.8,0-10.4,4.7-10.4,10.4s4.7,10.4 10.4,10.4z"/>
      <path d="m144.2,79.6h30.6c5.8,0 10.4-4.7 10.4-10.4s-4.7-10.4-10.4-10.4h-30.6c-5.8,0-10.4,4.7-10.4,10.4s4.7,10.4 10.4,10.4z"/>
      <path d="m225.4,79.6h30.6c5.8,0 10.4-4.7 10.4-10.4s-4.7-10.4-10.4-10.4h-30.6c-5.8,0-10.4,4.7-10.4,10.4s4.6,10.4 10.4,10.4z"/>
      <path d="m256,370.7c36.9,0 66.9-30 66.9-66.9 0-36.9-30-66.9-66.9-66.9s-66.9,30-66.9,66.9c2.84217e-14,36.9 30,66.9 66.9,66.9zm0-112.9c25.4,0 46,20.6 46,46 0,25.4-20.6,46-46,46s-46-20.6-46-46c0-25.4 20.6-46 46-46z"/>
    </g>
  </g>
</svg>
