<?xml version='1.0' encoding='utf-8'?>
<!DOCTYPE svg PUBLIC '-//W3C//DTD SVG 1.1//EN' 'http://www.w3.org/Graphics/SVG/1.1/DTD/svg11.dtd'>
<svg version="1.1" xmlns="http://www.w3.org/2000/svg" viewBox="0 0 512 512" xmlns:xlink="http://www.w3.org/1999/xlink" enable-background="new 0 0 512 512">
  <g>
    <g fill="#231F20">
      <path d="M490.6,11H21.4C15.7,11,11,15.7,11,21.4v469.1c0,5.8,4.7,10.4,10.4,10.4h469.1c5.8,0,10.4-4.7,10.4-10.4    V21.4C501,15.7,496.3,11,490.6,11z M31.9,31.9h448.3v64.8H31.9V31.9z M480.1,480.1H31.9V117.5h448.3V480.1z"/>
      <path d="m85.9,53.8h-20.8c-5.8,0-10.4,4.7-10.4,10.4s4.7,10.4 10.4,10.4h20.8c5.8,0 10.4-4.7 10.4-10.4s-4.7-10.4-10.4-10.4z"/>
      <path d="m150.7,53.8h-20.8c-5.8,0-10.4,4.7-10.4,10.4s4.7,10.4 10.4,10.4h20.8c5.8,0 10.4-4.7 10.4-10.4s-4.6-10.4-10.4-10.4z"/>
      <path d="m446.9,53.8h-181c-5.8,0-10.4,4.7-10.4,10.4s4.7,10.4 10.4,10.4h181c5.8,0 10.4-4.7 10.4-10.4s-4.6-10.4-10.4-10.4z"/>
      <path d="m65.1,305.2h128.6c5.8,0 10.4-4.7 10.4-10.4v-128.6c0-5.8-4.7-10.4-10.4-10.4h-128.6c-5.8,0-10.4,4.7-10.4,10.4v128.6c-0.1,5.8 4.6,10.4 10.4,10.4zm10.4-128.5h107.7v107.7h-107.7v-107.7z"/>
      <path d="m256,305.2h190.9c5.8,0 10.4-4.7 10.4-10.4 0-5.8-4.7-10.4-10.4-10.4h-190.9c-5.8,0-10.4,4.7-10.4,10.4 0,5.8 4.6,10.4 10.4,10.4z"/>
      <path d="m65.1,371.1h381.8c5.8,0 10.4-4.7 10.4-10.4 0-5.8-4.7-10.4-10.4-10.4h-381.8c-5.8,0-10.4,4.7-10.4,10.4-0.1,5.7 4.6,10.4 10.4,10.4z"/>
      <path d="m65.1,441.8h381.8c5.8,0 10.4-4.7 10.4-10.4 0-5.8-4.7-10.4-10.4-10.4h-381.8c-5.8,0-10.4,4.7-10.4,10.4-0.1,5.8 4.6,10.4 10.4,10.4z"/>
    </g>
  </g>
</svg>
