<?xml version='1.0' encoding='utf-8'?>
<!DOCTYPE svg PUBLIC '-//W3C//DTD SVG 1.1//EN' 'http://www.w3.org/Graphics/SVG/1.1/DTD/svg11.dtd'>
<svg version="1.1" xmlns="http://www.w3.org/2000/svg" viewBox="0 0 512 512" xmlns:xlink="http://www.w3.org/1999/xlink" enable-background="new 0 0 512 512">
  <g>
    <g fill="#231F20">
      <path d="m134.5,200.7h-59c-5.8,0-10.4,4.7-10.4,10.4v59c0,5.8 4.7,10.4 10.4,10.4h59c5.8,0 10.4-4.7 10.4-10.4v-59c0-5.8-4.7-10.4-10.4-10.4zm-10.5,59h-38.1v-38.1h38.1v38.1z"/>
      <path d="m235.1,200.7h-59c-5.8,0-10.4,4.7-10.4,10.4v59c0,5.8 4.7,10.4 10.4,10.4h59c5.8,0 10.4-4.7 10.4-10.4v-59c0.1-5.8-4.6-10.4-10.4-10.4zm-10.4,59h-38.1v-38.1h38.1v38.1z"/>
      <path d="m335.8,200.7h-59c-5.8,0-10.4,4.7-10.4,10.4v59c0,5.8 4.7,10.4 10.4,10.4h59c5.8,0 10.4-4.7 10.4-10.4v-59c0.1-5.8-4.6-10.4-10.4-10.4zm-10.4,59h-38.1v-38.1h38.1v38.1z"/>
      <path d="m436.5,200.7h-59c-5.8,0-10.4,4.7-10.4,10.4v59c0,5.8 4.7,10.4 10.4,10.4h59c5.8,0 10.4-4.7 10.4-10.4v-59c0-5.8-4.6-10.4-10.4-10.4zm-10.4,59h-38.1v-38.1h38.1v38.1z"/>
      <path d="m134.5,301.4h-59c-5.8,0-10.4,4.7-10.4,10.4v59c0,5.8 4.7,10.4 10.4,10.4h59c5.8,0 10.4-4.7 10.4-10.4v-59c0-5.8-4.7-10.4-10.4-10.4zm-10.5,58.9h-38.1v-38.1h38.1v38.1z"/>
      <path d="m235.1,301.4h-59c-5.8,0-10.4,4.7-10.4,10.4v59c0,5.8 4.7,10.4 10.4,10.4h59c5.8,0 10.4-4.7 10.4-10.4v-59c0.1-5.8-4.6-10.4-10.4-10.4zm-10.4,58.9h-38.1v-38.1h38.1v38.1z"/>
      <path d="m335.8,301.4h-59c-5.8,0-10.4,4.7-10.4,10.4v59c0,5.8 4.7,10.4 10.4,10.4h59c5.8,0 10.4-4.7 10.4-10.4v-59c0.1-5.8-4.6-10.4-10.4-10.4zm-10.4,58.9h-38.1v-38.1h38.1v38.1z"/>
      <path d="m436.5,301.4h-59c-5.8,0-10.4,4.7-10.4,10.4v59c0,5.8 4.7,10.4 10.4,10.4h59c5.8,0 10.4-4.7 10.4-10.4v-59c0-5.8-4.6-10.4-10.4-10.4zm-10.4,58.9h-38.1v-38.1h38.1v38.1z"/>
      <path d="m134.5,402h-59c-5.8,0-10.4,4.7-10.4,10.4v59c0,5.8 4.7,10.4 10.4,10.4h59c5.8,0 10.4-4.7 10.4-10.4v-59c0-5.7-4.7-10.4-10.4-10.4zm-10.5,59h-38.1v-38.1h38.1v38.1z"/>
      <path d="m235.1,402h-59c-5.8,0-10.4,4.7-10.4,10.4v59c0,5.8 4.7,10.4 10.4,10.4h59c5.8,0 10.4-4.7 10.4-10.4v-59c0.1-5.7-4.6-10.4-10.4-10.4zm-10.4,59h-38.1v-38.1h38.1v38.1z"/>
      <path d="m335.8,402h-59c-5.8,0-10.4,4.7-10.4,10.4v59c0,5.8 4.7,10.4 10.4,10.4h59c5.8,0 10.4-4.7 10.4-10.4v-59c0.1-5.7-4.6-10.4-10.4-10.4zm-10.4,59h-38.1v-38.1h38.1v38.1z"/>
      <path d="m436.5,402h-59c-5.8,0-10.4,4.7-10.4,10.4v59c0,5.8 4.7,10.4 10.4,10.4h59c5.8,0 10.4-4.7 10.4-10.4v-59c0-5.7-4.6-10.4-10.4-10.4zm-10.4,59h-38.1v-38.1h38.1v38.1z"/>
      <path d="m319.4,141.1h13.4v-70h-10.8c-1.5,4.3-4.3,8-8.4,11.2-4.1,3.2-7.9,5.4-11.4,6.5v12.1c6.6-2.2 12.4-5.6 17.3-10.1v50.3z"/>
      <path d="m370.7,111.1c-7.5,6.9-12.5,12.5-15,16.7-2.5,4.2-4.1,8.7-4.6,13.3h46.9v-12.4h-26.6c0.7-1.2 1.6-2.4 2.7-3.7 1.1-1.3 3.8-3.8 8-7.7 4.2-3.9 7.1-6.8 8.8-8.9 2.4-3.1 4.2-6.1 5.4-8.9 1.1-2.8 1.7-5.8 1.7-9 0-5.5-2-10.1-5.9-13.8-3.9-3.7-9.3-5.6-16.2-5.6-6.3,0-11.5,1.6-15.7,4.8-4.2,3.2-6.7,8.5-7.5,15.8l13.3,1.3c0.3-3.9 1.2-6.7 2.9-8.4 1.6-1.7 3.9-2.5 6.7-2.5 2.8,0 5,0.8 6.6,2.4 1.6,1.6 2.4,3.9 2.4,6.9 0,2.7-0.9,5.4-2.8,8.2-1.4,2-5.1,5.8-11.1,11.5z"/>
      <path d="m429.4,131.2c-2.6,0-4.8-0.9-6.6-2.6-1.8-1.7-2.9-4.3-3.3-7.6l-12.9,1.6c0.7,5.9 3.1,10.6 7.2,14.3 4.2,3.6 9.4,5.4 15.7,5.4 6.7,0 12.2-2.2 16.7-6.5s6.7-9.5 6.7-15.7c0-4.2-1.2-7.8-3.6-10.8-2.4-3-5.6-4.9-9.6-5.8 6.7-3.6 10-8.5 10-14.7 0-4.3-1.6-8.2-4.9-11.6-4-4.2-9.2-6.3-15.8-6.3-3.8,0-7.3,0.7-10.4,2.2-3.1,1.4-5.5,3.4-7.2,5.9-1.7,2.5-3,5.9-3.9,10.1l12.3,2.1c0.3-3 1.3-5.4 3-6.9 1.6-1.6 3.6-2.4 5.9-2.4 2.3,0 4.2,0.7 5.6,2.1 1.4,1.4 2.1,3.3 2.1,5.6 0,2.8-1,5-2.9,6.6-1.9,1.7-4.7,2.5-8.3,2.4l-1.5,10.9c2.4-0.7 4.4-1 6.1-1 2.6,0 4.8,1 6.6,3 1.8,2 2.7,4.6 2.7,8 0,3.6-0.9,6.4-2.8,8.5-1.8,2.2-4.2,3.2-6.9,3.2z"/>
      <path d="M490.6,30.1H21.4c-5.8,0-10.4,4.7-10.4,10.4v132.3c0,5.8,4.7,10.4,10.4,10.4h469.1    c5.8,0,10.4-4.7,10.4-10.4V40.5C501,34.8,496.3,30.1,490.6,30.1z M480.1,162.5H31.9V51h448.3V162.5z"/>
    </g>
  </g>
</svg>
