<?xml version='1.0' encoding='utf-8'?>
<!DOCTYPE svg PUBLIC '-//W3C//DTD SVG 1.1//EN' 'http://www.w3.org/Graphics/SVG/1.1/DTD/svg11.dtd'>
<svg version="1.1" xmlns="http://www.w3.org/2000/svg" viewBox="0 0 512 512" xmlns:xlink="http://www.w3.org/1999/xlink" enable-background="new 0 0 512 512">
  <g>
    <g fill="#231F20">
      <path d="m490.6,80.7h-102.3v-27.1c0-5.8-4.7-10.4-10.4-10.4-5.8,0-10.4,4.7-10.4,10.4v27.1h-223v-27.1c0-5.8-4.7-10.4-10.4-10.4s-10.4,4.7-10.4,10.4v27.1h-102.3c-5.8,0-10.4,4.7-10.4,10.4v82.7 284.6c0,5.8 4.7,10.4 10.4,10.4h353.6c4.6-0.1 7.1-2.8 7.4-3.1l115.5-115.5c3.3-3.2 3.1-7.4 3.1-7.4v-169-82.7c0-5.8-4.7-10.4-10.4-10.4zm-458.7,20.8h91.8v26.6c0,5.8 4.7,10.4 10.4,10.4s10.4-4.7 10.4-10.4v-26.6h222.9v26.6c0,5.8 4.7,10.4 10.4,10.4 5.8,0 10.4-4.7 10.4-10.4v-26.6h91.8v61.9h-448.1v-61.9zm0,82.7h448.3v148.2h-105.2c-5.8,0-10.4,4.7-10.4,10.4v105.2h-332.7v-263.8zm433.5,169.1l-80,80v-80h80z"/>
      <path d="m164,309.6c14.1-7.7 21.2-18 21.2-30.9 0-9.1-3.4-17.3-10.3-24.5-8.4-8.8-19.5-13.3-33.3-13.3-8.1,0-15.4,1.5-21.9,4.6-6.5,3-11.6,7.2-15.3,12.5-3.6,5.3-6.4,12.4-8.2,21.3l26,4.4c0.7-6.4 2.8-11.3 6.2-14.7 3.4-3.3 7.5-5 12.3-5 4.9,0 8.8,1.5 11.7,4.4 2.9,2.9 4.4,6.9 4.4,11.8 0,5.8-2,10.5-6,14-4,3.5-9.8,5.2-17.5,5l-3.1,23c5-1.4 9.3-2.1 13-2.1 5.5,0 10.1,2.1 14,6.2 3.8,4.1 5.7,9.8 5.7,16.9 0,7.5-2,13.5-6,17.9-4,4.4-8.9,6.6-14.7,6.6-5.4,0-10-1.8-13.9-5.5-3.8-3.7-6.2-9-7-16l-27.3,3.3c1.4,12.4 6.5,22.4 15.3,30.1 8.8,7.7 19.8,11.5 33.1,11.5 14.1,0 25.8-4.6 35.2-13.7 9.4-9.1 14.2-20.1 14.2-33 0-8.9-2.5-16.5-7.6-22.8-5-6.1-11.7-10.2-20.2-12z"/>
      <path d="m257.1,241c-14.3,0-25.4,5-33.3,15.1-9.6,12.2-14.5,32.1-14.5,59.8 0,28.2 4.4,47.9 13.2,58.9 8.8,11 20.3,16.5 34.6,16.5 14.3,0 25.4-5 33.3-15.1 9.6-12.2 14.5-32.2 14.5-60 0-27.9-4.8-47.9-14.4-59.9-8-10.2-19.1-15.3-33.4-15.3zm15.4,111.9c-1.5,5.6-3.5,9.5-6.2,11.7-2.7,2.2-5.7,3.3-9.1,3.3s-6.4-1.1-9.1-3.2c-2.6-2.1-4.8-6.4-6.6-12.9-1.7-6.5-2.6-18.3-2.6-35.6 0-17.3 1-29.5 2.9-36.8 1.5-5.6 3.5-9.5 6.2-11.7s5.7-3.3 9.1-3.3 6.4,1.1 9.1,3.3c2.6,2.2 4.8,6.5 6.6,13 1.7,6.5 2.6,18.3 2.6,35.6-1.13687e-13,17.1-1,29.4-2.9,36.6z"/>
    </g>
  </g>
</svg>
