<?xml version='1.0' encoding='utf-8'?>
<!DOCTYPE svg PUBLIC '-//W3C//DTD SVG 1.1//EN' 'http://www.w3.org/Graphics/SVG/1.1/DTD/svg11.dtd'>
<svg version="1.1" xmlns="http://www.w3.org/2000/svg" viewBox="0 0 512 512" xmlns:xlink="http://www.w3.org/1999/xlink" enable-background="new 0 0 512 512">
  <g>
    <path fill="#231F20" d="m404.6,159.7c-5.6-1.3-11.2,2.1-12.5,7.7l-26.9,113.5v-160.7c-5.68434e-14-60.2-49-109.2-109.2-109.2s-109.2,49-109.2,109.2v160.8l-26.9-113.5c-1.3-5.6-7-9.1-12.5-7.7-5.6,1.3-9.1,6.9-7.7,12.5l37.5,157.9c0,0 0,0.1 0,0.1v0.2c1.1,4.6 5.2,8 10.1,8h98.2v98.2h-82.8c-5.8,0-10.4,4.7-10.4,10.4v43.4c0,5.8 4.7,10.4 10.4,10.4s10.4-4.7 10.4-10.4v-33h165.6v33c0,5.8 4.7,10.4 10.4,10.4 5.8,0 10.4-4.7 10.4-10.4v-43.4c0-5.8-4.7-10.4-10.4-10.4h-82.8v-98.2h98.2c4.9,0 9-3.4 10.1-8v-0.2c0,0 0-0.1 0-0.1l37.5-157.9c1.6-5.6-1.9-11.2-7.5-12.6zm-236.9-39.5c0-48.7 39.6-88.3 88.3-88.3s88.3,39.6 88.3,88.3v143.5c-6.6-4.1-25.6-19.9-88.3-19.9-61.4,0-79.4,15.2-88.3,19.9v-143.5zm185.9,197.4h-97.6-97.6c3.4-39.5 45.9-53 78-53h19.6 19.7c32,0.1 74.5,13.6 77.9,53z"/>
  </g>
</svg>
