<?xml version='1.0' encoding='utf-8'?>
<!DOCTYPE svg PUBLIC '-//W3C//DTD SVG 1.1//EN' 'http://www.w3.org/Graphics/SVG/1.1/DTD/svg11.dtd'>
<svg version="1.1" xmlns="http://www.w3.org/2000/svg" viewBox="0 0 512 512" xmlns:xlink="http://www.w3.org/1999/xlink" enable-background="new 0 0 512 512">
  <g>
    <g fill="#231F20">
      <path d="m256,11c-135.1,0-245,109.9-245,245s109.9,245 245,245 245-109.9 245-245-109.9-245-245-245zm203.2,255.4h20.7c-2.5,54-24.1,103-58.3,140.5l-14.6-14.6c-4.1-4.1-10.7-4.1-14.7,0-4.1,4.1-4.1,10.7 0,14.7l14.6,14.6c-37.5,34.2-86.5,55.8-140.5,58.3v-20.7c0-5.8-4.7-10.4-10.4-10.4-5.8,0-10.4,4.7-10.4,10.4v20.7c-54-2.5-103-24.1-140.5-58.3l14.6-14.6c4.1-4.1 4.1-10.7 0-14.7-4.1-4.1-10.7-4.1-14.7,0l-14.6,14.6c-34.1-37.5-55.8-86.5-58.3-140.4h20.7c5.8,0 10.4-4.7 10.4-10.4s-4.7-10.4-10.4-10.4h-20.7c2.5-54 24.1-103 58.3-140.5l14.6,14.6c4.1,4.1 10.7,4.1 14.7,0 4.1-4.1 4.1-10.7 0-14.7l-14.6-14.6c37.5-34.2 86.5-55.8 140.5-58.3v20.7c0,5.8 4.7,10.4 10.4,10.4 5.8,0 10.4-4.7 10.4-10.4v-20.8c54,2.5 103,24.1 140.5,58.3l-14.6,14.6c-4.1,4.1-4.1,10.7 0,14.7 4.1,4.1 10.7,4.1 14.7,0l14.6-14.6c34.2,37.5 55.8,86.5 58.3,140.5h-20.7c-5.8,0-10.4,4.7-10.4,10.4s4.6,10.4 10.4,10.4z"/>
      <path d="m364.3,245.6h-97.9v-144.4c0-5.8-4.7-10.4-10.4-10.4-5.8,0-10.4,4.7-10.4,10.4v144.4h-42.7c-5.8,0-10.4,4.7-10.4,10.4s4.7,10.4 10.4,10.4h42.7v39.4c0,5.8 4.7,10.4 10.4,10.4 5.8,0 10.4-4.7 10.4-10.4v-39.4h97.9c5.8,0 10.4-4.7 10.4-10.4s-4.7-10.4-10.4-10.4z"/>
    </g>
  </g>
</svg>
