<?xml version='1.0' encoding='utf-8'?>
<!DOCTYPE svg PUBLIC '-//W3C//DTD SVG 1.1//EN' 'http://www.w3.org/Graphics/SVG/1.1/DTD/svg11.dtd'>
<svg version="1.1" xmlns="http://www.w3.org/2000/svg" viewBox="0 0 512 512" xmlns:xlink="http://www.w3.org/1999/xlink" enable-background="new 0 0 512 512">
  <g>
    <g fill="#231F20">
      <path d="m363,373.1h-60.2v-140.1c0-5.8-4.7-10.4-10.4-10.4h-72.8c-5.8,0-10.4,4.7-10.4,10.4v140.1h-60.2c-12.6,0.8-12,14.5-7.4,17.8l107,107c2.1,2.2 8.6,5.7 14.7,0l107-107c5-4.6 4.8-16.9-7.3-17.8zm-107,102.7l-81.8-81.8h45.4c5.8,0 10.4-4.7 10.4-10.4v-140.2h51.9v140.1c0,5.8 4.7,10.4 10.4,10.4h45.5l-81.8,81.9z"/>
      <path d="m384.2,129.1c-5.4-66-60.8-118.1-128.2-118.1s-122.8,52.1-128.2,118.1c-1.42109e-14,0-105.6-4.2-105.6,99.8 0,53.6 44.8,99.8 99.8,99.8h67.7c5.8,0 10.4-4.7 10.4-10.4s-4.7-10.4-10.4-10.4h-67.7c-43.5,0-78.9-35.4-78.9-79 0-43.5 34.4-78.5 78.9-79 7.1-0.1 26.2,4.3 26.2-10.4 0-59.4 48.3-107.7 107.7-107.7 59.4,0 107.7,48.3 107.7,107.7 0,14.3 19.2,10.4 26.2,10.4 43.1,0.3 79,35.4 79,79 0,43.5-35.4,79-79,79h-67.7c-5.8,0-10.4,4.7-10.4,10.4s4.7,10.4 10.4,10.4h67.7c55,0 99.8-45.7 99.8-99.8 0.1-102.7-105.4-99.8-105.4-99.8z"/>
    </g>
  </g>
</svg>
