<?xml version='1.0' encoding='utf-8'?>
<!DOCTYPE svg PUBLIC '-//W3C//DTD SVG 1.1//EN' 'http://www.w3.org/Graphics/SVG/1.1/DTD/svg11.dtd'>
<svg version="1.1" xmlns="http://www.w3.org/2000/svg" viewBox="0 0 512 512" xmlns:xlink="http://www.w3.org/1999/xlink" enable-background="new 0 0 512 512">
  <g>
    <g fill="#231F20">
      <path d="m408.2,195.3c-9.3,0-18.3,1.4-27.1,4.3-0.5-1.6-1-11.7-11.5-12.4h-333.2c-4.6,0-8.7,3.1-10.1,7.5-29.1,97.7-2.5,203 69.5,275l31.3,31.3h151.7l31.3-31.3c29.5-29.5 51.4-64.7 65-102.6 10.5,4.2 21.7,6.4 33.1,6.4 49.1,0 89.1-40 89.1-89.1 5.68434e-14-49.1-40-89.1-89.1-89.1zm-112.9,259.5l-29.1,29.1h-126.4l-29.1-29.1c-64.7-64.6-89.7-158.5-66.4-246.6h317.3c23.4,88.1-1.6,182-66.3,246.6zm112.9-102.3c-9.2,0-18.3-1.9-26.7-5.5 11.2-40.9 13-84.3 4.5-126.9 7.2-2.5 14.6-3.8 22.2-3.8 37.5,0 68.1,30.5 68.1,68.1 5.68434e-14,37.6-30.6,68.1-68.1,68.1z"/>
      <path d="m148.8,176.6c5.8,0 10.5-4.7 10.5-10.5v-86.3c0-5.8-4.7-10.5-10.5-10.5-5.8,0-10.5,4.7-10.5,10.5v86.3c0,5.8 4.7,10.5 10.5,10.5z"/>
      <path d="m203,176.6c5.8,0 10.5-4.7 10.5-10.5v-144.6c0-5.8-4.7-10.5-10.5-10.5-5.8,0-10.5,4.7-10.5,10.5v144.5c0,5.9 4.7,10.6 10.5,10.6z"/>
      <path d="m257.2,176.6c5.8,0 10.5-4.7 10.5-10.5v-86.3c0-5.8-4.7-10.5-10.5-10.5-5.8,0-10.5,4.7-10.5,10.5v86.3c0,5.8 4.7,10.5 10.5,10.5z"/>
    </g>
  </g>
</svg>
