<?xml version='1.0' encoding='utf-8'?>
<!DOCTYPE svg PUBLIC '-//W3C//DTD SVG 1.1//EN' 'http://www.w3.org/Graphics/SVG/1.1/DTD/svg11.dtd'>
<svg version="1.1" xmlns="http://www.w3.org/2000/svg" viewBox="0 0 512 512" xmlns:xlink="http://www.w3.org/1999/xlink" enable-background="new 0 0 512 512">
  <g>
    <g fill="#231F20">
      <path d="m490.5,350.5h-154.4l-20.7-33h136.1c5.8,0 10.5-4.7 10.5-10.5v-283.1c0-5.8-4.7-10.5-10.5-10.5h-391c-5.8,0-10.5,4.7-10.5,10.5v283.2c0,5.8 4.7,10.5 10.5,10.5h136.1l-20.7,33h-154.4c-5.8,0-10.5,4.7-10.5,10.5v127.1c0,5.8 4.7,10.5 10.5,10.5h469c5.8,0 10.5-4.7 10.5-10.5v-127.2c0-5.8-4.7-10.5-10.5-10.5zm-419.5-53.9v-262.3h370v262.3h-370zm240.3,53.9h-110.6l20.7-33h69.2l20.7,33zm168.7,127.2h-448v-106.2h448v106.2z"/>
      <path d="m79.5,435.1h172.3c5.8,0 10.5-4.7 10.5-10.5 0-5.8-4.7-10.5-10.5-10.5h-172.3c-5.8,0-10.5,4.7-10.5,10.5 0,5.8 4.7,10.5 10.5,10.5z"/>
      <path d="m380.5,446c5.8,0 10.5-4.7 10.5-10.5v-21.8c0-5.8-4.7-10.5-10.5-10.5-5.8,0-10.5,4.7-10.5,10.5v21.8c0,5.8 4.7,10.5 10.5,10.5z"/>
      <path d="m432.5,446c5.8,0 10.5-4.7 10.5-10.5v-21.8c0-5.8-4.7-10.5-10.5-10.5-5.8,0-10.5,4.7-10.5,10.5v21.8c0,5.8 4.7,10.5 10.5,10.5z"/>
      <path d="m124.2,193c-5.8,0-10.5,4.7-10.5,10.5v39.4c0,5.8 4.7,10.5 10.5,10.5 5.8,0 10.5-4.7 10.5-10.5v-39.4c-0.1-5.8-4.7-10.5-10.5-10.5z"/>
      <path d="m190.1,157.1c-5.8,0-10.5,4.7-10.5,10.5v75.1c0,5.8 4.7,10.5 10.5,10.5 5.8,0 10.5-4.7 10.5-10.5v-75.1c0-5.8-4.7-10.5-10.5-10.5z"/>
      <path d="m256,137.2c-5.8,0-10.5,4.7-10.5,10.5v94.8c0,5.8 4.7,10.5 10.5,10.5 5.8,0 10.5-4.7 10.5-10.5v-94.8c0-5.8-4.7-10.5-10.5-10.5z"/>
      <path d="m321.9,117.7c-5.8,0-10.5,4.7-10.5,10.5v114.2c0,5.8 4.7,10.5 10.5,10.5 5.8,0 10.5-4.7 10.5-10.5v-114.2c0-5.8-4.7-10.5-10.5-10.5z"/>
      <path d="m387.8,77.5c-5.8,0-10.5,4.7-10.5,10.5v154c0,5.8 4.7,10.5 10.5,10.5 5.8,0 10.5-4.7 10.5-10.5v-154c0-5.8-4.7-10.5-10.5-10.5z"/>
    </g>
  </g>
</svg>
