<?xml version='1.0' encoding='utf-8'?>
<!DOCTYPE svg PUBLIC '-//W3C//DTD SVG 1.1//EN' 'http://www.w3.org/Graphics/SVG/1.1/DTD/svg11.dtd'>
<svg version="1.1" xmlns="http://www.w3.org/2000/svg" viewBox="0 0 512 512" xmlns:xlink="http://www.w3.org/1999/xlink" enable-background="new 0 0 512 512">
  <g>
    <path fill="#231F20" d="m256,11c-135.1,0-245,109.9-245,245s109.9,245 245,245 245-109.9 245-245-109.9-245-245-245zm-52.8,27.2c-19.6,20.3-36.1,51.8-47.3,91.3h-84.8c30.8-44.9 77.6-78.1 132.1-91.3zm-52.6,112.1c-3.4,15.2-6.1,31.4-8,48.4-25,3.1-45.1,22.3-49.6,46.8h-60.9c1.6-34.3 10.9-66.6 26.2-95.2h92.3zm33.6,105.7c0,19-15.4,34.4-34.4,34.4-19,0-34.4-15.4-34.4-34.4 0-19 15.4-34.4 34.4-34.4 18.9,2.84217e-14 34.4,15.4 34.4,34.4zm-152.1,10.4h60.9c4.5,24.6 24.6,43.7 49.6,46.9 1.9,17 4.6,33.2 8,48.4h-92.2c-15.4-28.7-24.7-61-26.3-95.3zm39,116.1h84.8c11.3,39.5 27.7,71.1 47.3,91.3-54.5-13.2-101.3-46.4-132.1-91.3zm174.5,94.7c-27.2-7.4-52.1-43.2-67.8-94.7h67.8v94.7zm-0-115.5h-73.6c-3.7-15.5-6.7-32.1-8.7-49.5 22-5.3 39.1-23.3 43.2-45.7h39v95.2zm.1-116.1h-39c-4.1-22.4-21.2-40.4-43.2-45.7 2-17.4 5-34 8.7-49.5h73.5v95.2zm0-116.1h-67.8c15.8-51.5 40.6-87.3 67.8-94.7v94.7zm234.3,116.1h-107.3c-0.3-17.5-1.6-34.9-3.6-51.7 18.6-7.1 32.5-23.5 36.2-43.5h48.5c15.3,28.6 24.6,60.9 26.2,95.2zm-131.6-71.3c-19,0-34.4-15.4-34.4-34.4 0-19 15.4-34.4 34.4-34.4 19,0 34.4,15.4 34.4,34.4 0,19-15.4,34.4-34.4,34.4zm92.6-44.8h-35.8c-4.9-26.9-28.5-47.3-56.8-47.3-3.3,0-6.5,0.3-9.6,0.8-8.8-18.4-18.8-33.4-29.7-44.8 54.4,13.2 101.1,46.4 131.9,91.3zm-174.5-94.7c19.1,5.2 37.6,24.7 52.6,55.3-14.2,8.4-24.5,22.6-27.5,39.3h-25.1v-94.6zm0,115.5h25c4.6,27.1 28.4,47.7 56.9,47.7 0,0 0.1,0 0.1,0 1.9,15.5 2.9,31.4 3.3,47.5h-85.3v-95.2zm116.3,220.8c0,19-15.4,34.4-34.4,34.4-19,0-34.4-15.4-34.4-34.4 0-19 15.4-34.4 34.4-34.4 19-5.68434e-14 34.4,15.5 34.4,34.4zm-116.3-104.7h85.3c-0.3,15.8-1.4,31.4-3.2,46.6-0.1,0-0.2,0-0.2,0-28.9,0-52.9,21.1-57.1,48.7h-24.8v-95.3zm0,210.8v-94.7h25.3c3.3,16.5 13.6,30.4 27.7,38.6-15,31.1-33.7,50.8-53,56.1zm42.6-3.4c11.1-11.5 21.2-26.9 30.1-45.7 3,0.5 6.1,0.7 9.2,0.7 28,0 51.3-20 56.6-46.4h36c-30.8,45-77.5,78.2-131.9,91.4zm144.6-112.2h-48.4c-3.4-20.4-17.5-37.2-36.3-44.4 2-16.6 3.2-33.6 3.5-50.8h107.4c-1.5,34.3-10.8,66.6-26.2,95.2z"/>
  </g>
</svg>
