<?xml version='1.0' encoding='utf-8'?>
<!DOCTYPE svg PUBLIC '-//W3C//DTD SVG 1.1//EN' 'http://www.w3.org/Graphics/SVG/1.1/DTD/svg11.dtd'>
<svg version="1.1" xmlns="http://www.w3.org/2000/svg" viewBox="0 0 512 512" xmlns:xlink="http://www.w3.org/1999/xlink" enable-background="new 0 0 512 512">
  <g>
    <g fill="#231F20">
      <path d="m342.4,154.7c27.2,0 49.3-22.1 49.3-49.3 0-27.2-22.1-49.3-49.3-49.3-27.2,0-49.3,22.1-49.3,49.3-0.1,27.1 22.1,49.3 49.3,49.3zm0-77.9c15.7,0 28.5,12.8 28.5,28.5 0,15.7-12.8,28.5-28.5,28.5-15.7,0-28.5-12.8-28.5-28.5 0-15.7 12.8-28.5 28.5-28.5z"/>
      <path d="m436.7,105.3c0-52-42.3-94.3-94.3-94.3-52,0-94.3,42.3-94.3,94.3 0,10 3.4,23.2 8.8,37.8-0.9,0-1.7,0-2.6,0-98.7,0-178.9,80.3-178.9,178.9s80.2,179 178.9,179c98.7,0 178.9-80.3 178.9-178.9 0-39.9-13.4-78.6-38-110 21-38.4 41.5-82 41.5-106.8zm-94.3-73.4c40.5,7.10543e-15 73.5,33 73.5,73.5 0,28.5-65.8,143-73.5,155.2-14.4-23-73.5-132.3-73.5-155.2 0-40.6 33-73.5 73.5-73.5zm69.6,300.6c-1.6,24-8.5,46.6-19.7,66.5h-48.8c5.2-20.3 8.4-42.7 9.1-66.5h59.4zm-90.2,66.5h-57.1v-66.5h67.1c-0.8,23.9-4.4,46.5-10,66.5zm-225.3-66.5h59.4c0.7,23.8 3.9,46.3 9.1,66.5h-48.8c-11.1-19.9-18.1-42.5-19.7-66.5zm19.7-87.4h48.8c-5.2,20.3-8.4,42.7-9.1,66.5h-59.4c1.6-24 8.6-46.6 19.7-66.5zm180.1-20.8h-31.6v-58.7c0.5,0.2 1.1,0.3 1.6,0.5 8.8,19.4 19.6,39.8 30,58.2zm-52.5-58.8v58.8h-50.1c12.3-31.2 30.2-53.1 50.1-58.8zm0,79.6v66.5h-67.1c0.8-23.9 4.4-46.5 10-66.5h57.1zm-67,87.4h67.1v66.5h-57.1c-5.7-20-9.2-42.6-10-66.5zm67,87.4v58.8c-20-5.7-37.8-27.6-50.1-58.8h50.1zm20.9,58.7v-58.8h50.1c-12.3,31.2-30.1,53.1-50.1,58.8zm0-167v-66.5h38.8c1.6,0 3.1-0.4 4.4-1 8.5,14.4 16.1,26.4 20.9,34 1.6,11 2.6,22.3 3,33.5h-67.1zm-66.7-137.3c-10.6,13.2-19.7,30.2-26.7,49.9h-41.1c17.5-22.2 40.9-39.6 67.8-49.9zm-67.9,245.6h41.2c7,19.7 16,36.7 26.7,49.9-26.9-10.3-50.3-27.7-67.9-49.9zm180.5,49.9c10.6-13.2 19.7-30.2 26.7-49.9h41.2c-17.7,22.2-41,39.6-67.9,49.9zm101.4-158.2h-59.4c-0.3-8.5-0.9-17.1-1.8-25.5 0,0 18.6-28.9 33.2-54.2 16.4,23.6 26.1,51.2 28,79.7z"/>
    </g>
  </g>
</svg>
