<?xml version='1.0' encoding='utf-8'?>
<!DOCTYPE svg PUBLIC '-//W3C//DTD SVG 1.1//EN' 'http://www.w3.org/Graphics/SVG/1.1/DTD/svg11.dtd'>
<svg version="1.1" xmlns="http://www.w3.org/2000/svg" viewBox="0 0 512 512" xmlns:xlink="http://www.w3.org/1999/xlink" enable-background="new 0 0 512 512">
  <g>
    <g fill="#231F20">
      <path d="m102.6,480.1h306.8v-448.2h-306.8v448.2h-2.84217e-14zm317.2,20.9h-327.6c-5.8,0-10.4-4.7-10.4-10.4v-469.2c0-5.8 4.7-10.4 10.4-10.4h327.7c5.8,0 10.4,4.7 10.4,10.4v469.1c5.68434e-14,5.8-4.7,10.5-10.5,10.5z"/>
      <path d="m361.5,94.7h-121.6c-5.8,0-10.4-4.7-10.4-10.4 0-5.8 4.7-10.4 10.4-10.4h121.6c5.8,0 10.4,4.7 10.4,10.4 0,5.8-4.6,10.4-10.4,10.4z"/>
      <path d="m361.5,180.6h-211c-5.8,0-10.4-4.7-10.4-10.4 0-5.8 4.7-10.4 10.4-10.4h211c5.8,0 10.4,4.7 10.4,10.4 0,5.7-4.6,10.4-10.4,10.4z"/>
      <path d="m361.5,266.4h-211c-5.8,0-10.4-4.7-10.4-10.4 0-5.8 4.7-10.4 10.4-10.4h211c5.8,0 10.4,4.7 10.4,10.4 0,5.8-4.6,10.4-10.4,10.4z"/>
      <path d="m361.5,352.3h-211c-5.8,0-10.4-4.7-10.4-10.4 0-5.8 4.7-10.4 10.4-10.4h211c5.8,0 10.4,4.7 10.4,10.4 0,5.7-4.6,10.4-10.4,10.4z"/>
      <path d="m361.5,438.1h-211c-5.8,0-10.4-4.7-10.4-10.4 0-5.8 4.7-10.4 10.4-10.4h211c5.8,0 10.4,4.7 10.4,10.4 0,5.8-4.6,10.4-10.4,10.4z"/>
    </g>
  </g>
</svg>
