<?xml version='1.0' encoding='utf-8'?>
<!DOCTYPE svg PUBLIC '-//W3C//DTD SVG 1.1//EN' 'http://www.w3.org/Graphics/SVG/1.1/DTD/svg11.dtd'>
<svg version="1.1" xmlns="http://www.w3.org/2000/svg" viewBox="0 0 512 512" xmlns:xlink="http://www.w3.org/1999/xlink" enable-background="new 0 0 512 512">
  <g>
    <g fill="#231F20">
      <path d="M411.4,11h-228c0,0-4.3-0.1-7.4,3.1L93.3,96.7c-3.4,3.4-3.1,7.4-3.1,7.4v386.4c0,5.8,4.7,10.4,10.4,10.4    h310.7c5.8,0,10.4-4.7,10.4-10.4V21.4C421.8,15.7,417.1,11,411.4,11z M172.9,46.6v47.1h-47.1L172.9,46.6z M400.9,480.1H111.1    V114.6h72.3c5.8,0,10.4-4.7,10.4-10.4V31.9h207.2V480.1z"/>
      <path d="m141.7,320.6h28.2l10.8-29.9h52.5l11.5,29.9h28.9l-52.6-131.4h-28.1l-51.2,131.4zm83.1-52h-35.9l17.8-48.8 18.1,48.8z"/>
      <path d="m315.6,264.7c-8.7,1.7-15.4,3.6-20,5.9-4.6,2.2-8.2,5.5-10.8,9.7-2.6,4.2-3.9,9-3.9,14.4 0,8.1 2.8,14.9 8.5,20.2 5.6,5.3 13.4,8 23.2,8 5.6,0 10.8-1 15.7-3.1 4.9-2.1 9.5-5.2 13.8-9.4 0.2,0.5 0.5,1.5 0.9,3 1,3.3 1.8,5.8 2.4,7.4h24.9c-2.2-4.5-3.7-8.8-4.5-12.8-0.8-4-1.2-10.1-1.2-18.5l.3-29.4c0-10.9-1.1-18.5-3.4-22.5-2.2-4.1-6.1-7.5-11.6-10.1-5.5-2.7-13.9-4-25.1-4-12.4,0-21.7,2.2-28,6.6-6.3,4.4-10.7,11.2-13.3,20.4l22.9,4.1c1.6-4.4 3.6-7.5 6.1-9.3 2.5-1.8 6-2.6 10.5-2.6 6.6,0 11.1,1 13.5,3.1 2.4,2.1 3.6,5.5 3.6,10.4v2.5c-4.6,1.7-12.8,3.8-24.5,6zm24.4,15.2c0,6-0.3,10.1-1,12.3-1,3.3-3,6.1-6,8.3-4.1,3-8.5,4.5-13,4.5-4.1,0-7.4-1.3-10-3.9-2.6-2.6-3.9-5.6-3.9-9.1 0-3.6 1.6-6.5 4.9-8.9 2.2-1.4 6.7-2.9 13.7-4.4 7-1.5 12.1-2.8 15.3-3.9v5.1z"/>
    </g>
  </g>
</svg>
