<?xml version='1.0' encoding='utf-8'?>
<!DOCTYPE svg PUBLIC '-//W3C//DTD SVG 1.1//EN' 'http://www.w3.org/Graphics/SVG/1.1/DTD/svg11.dtd'>
<svg version="1.1" xmlns="http://www.w3.org/2000/svg" viewBox="0 0 512 512" xmlns:xlink="http://www.w3.org/1999/xlink" enable-background="new 0 0 512 512">
  <g>
    <path fill="none" stroke="#000000" stroke-linejoin="round" stroke-linecap="round" stroke-width="66.666" d="m422.6,487.8" stroke-miterlimit="10"/>
  </g>
  <g>
    <g fill="#231F20">
      <path d="m299.8,143.4c3.2,9.3 11.8,7.7 12.7,7.5 5.6-1.4 8.9-7.1 7.5-12.7l-23.5-91.9c-1.4-5.6-7.1-9-12.7-7.5l-91.9,23.5c-5.6,1.4-8.9,7.1-7.5,12.7 1.4,5.6 7.1,9 12.7,7.5l71.6-18.3-91.3,134.8-31.1-75.3c-1.2-4.3-10.5-10.6-17.9-2.3l-115.3,151.1c-3.5,4.6-2.6,11.1 2,14.6 1.9,1.4 9,4.6 14.6-2l104.2-136.8 31.6,76.5c5.9,10.8 16.3,5.6 18.3,1.9l99.7-147.1 16.3,63.8z"/>
      <path d="m358.7,164.5c-69,0-142.3,20.6-142.3,58.8v191.4c0,38.2 73.3,58.8 142.3,58.8 70.7,0 142.3-20.2 142.3-58.8v-191.4c0-38.6-71.6-58.8-142.3-58.8zm121.4,250.2c0,15.5-47.3,38-121.5,38-74.2,0-121.5-22.5-121.5-38v-32.1c26.7,17.7 75.1,27.1 121.5,27.1 47.4,0 95.1-9.1 121.5-26.6v31.6zm0-63.8c0,15.5-47.3,38-121.5,38-74.2,0-121.5-22.5-121.5-38v-32.1c26.7,17.7 75.1,27.1 121.5,27.1 47.4,0 95.1-9.1 121.5-26.6v31.6zm0-63.8c0,15.5-47.3,38-121.5,38-74.2,0-121.5-22.5-121.5-38v-32.1c26.7,17.7 75.1,27.1 121.5,27.1 47.4,0 95.1-9.1 121.5-26.6v31.6zm-121.4-25.8c-74.2,0-121.5-22.5-121.5-38 0-15.5 47.3-38 121.5-38 74.2,0 121.5,22.5 121.5,38-0.1,15.5-47.4,38-121.5,38z"/>
      <path d="m384.6,222.8c-3.7-2.4-10.8-4.4-21.1-5.9v-13.7c4.2,1 6.7,2.9 7.7,5.6l16.3-1.2c-1.1-3.5-3.7-6.3-7.7-8.4-4-2.1-9.5-3.4-16.3-3.8v-3.5h-9.3v3.5c-7.4,0.4-13.3,1.9-17.8,4.5s-6.7,5.8-6.7,9.7c0,3.8 2,7 5.9,9.7 3.9,2.7 10.1,4.6 18.5,5.9v14.7c-2.3-0.6-4.4-1.6-6.3-2.9-1.9-1.4-3.2-3-3.9-4.8l-16.8,1c1.3,4.6 4.3,8.2 8.9,10.7 4.6,2.5 10.7,4 18.1,4.5v6.4h9.3v-6.6c8.4-0.7 14.9-2.4 19.6-5.3 4.7-2.9 7.1-6.5 7.1-10.7 0.1-3.9-1.8-7-5.5-9.4zm-30.5-7.6c-2.8-0.7-4.9-1.5-6.3-2.6-1.4-1.1-2.1-2.2-2.1-3.5 0-1.4 0.8-2.6 2.3-3.7 1.5-1.1 3.5-1.9 6.1-2.4v12.2zm17.3,22.7c-2,1.3-4.6,2.1-7.9,2.4v-13.7c3.9,0.6 6.6,1.5 8.3,2.6 1.7,1.1 2.5,2.5 2.5,4 0.1,1.9-0.9,3.4-2.9,4.7z"/>
    </g>
  </g>
</svg>
