<?xml version='1.0' encoding='utf-8'?>
<!DOCTYPE svg PUBLIC '-//W3C//DTD SVG 1.1//EN' 'http://www.w3.org/Graphics/SVG/1.1/DTD/svg11.dtd'>
<svg version="1.1" xmlns="http://www.w3.org/2000/svg" viewBox="0 0 512 512" xmlns:xlink="http://www.w3.org/1999/xlink" enable-background="new 0 0 512 512">
  <g>
    <path fill="#231F20" d="m449.1,147.6l-67.9-59.2 67.9-59.2c5.8-4.4 5.3-17.2-6.9-18.3h-258c-5.8,0-10.4,4.7-10.4,10.4v394.8c-46.8,1.3-114.5,11.2-114.5,42.3 0,33.5 78.5,42.5 125,42.5 46.4,0 125-8.9 125-42.5 0-31.1-67.7-41-114.5-42.3v-250.2h247.5c5.8,0.3 16-8.3 6.8-18.3zm-160.8,310.9c-3,6.4-37.1,21.6-104,21.6-68,0-102.1-15.7-104.2-21.3 2-5.9 32.7-20.3 93.7-21.8v16.9c0,5.8 4.7,10.4 10.4,10.4 5.8,0 10.4-4.7 10.4-10.4v-16.9c60.2,1.5 90.9,15.5 93.7,21.5zm-93.6-313.5v-113.1h219.7l-55.9,48.7c-6.8,7-2.3,13.7 0,15.7l55.9,48.7h-219.7z"/>
  </g>
</svg>
