<?xml version='1.0' encoding='utf-8'?>
<!DOCTYPE svg PUBLIC '-//W3C//DTD SVG 1.1//EN' 'http://www.w3.org/Graphics/SVG/1.1/DTD/svg11.dtd'>
<svg version="1.1" xmlns="http://www.w3.org/2000/svg" viewBox="0 0 512 512" xmlns:xlink="http://www.w3.org/1999/xlink" enable-background="new 0 0 512 512">
  <g>
    <g fill="#231F20">
      <path d="m490.6,113.7h-106.5c-9.9-25.8-34.8-43-62.5-43h-17.4c-4.8-22.2-24.6-38.9-48.2-38.9-23.6,0-43.4,16.7-48.2,38.9h-17.4c-27.7,0-52.6,17.2-62.5,43h-106.5c-5.8,0-10.4,4.7-10.4,10.4v345.7c0,5.8 4.7,10.4 10.4,10.4h469.1c5.8,0 10.4-4.7 10.4-10.4v-345.7c0.1-5.8-4.6-10.4-10.3-10.4zm-343.5,8.2c6.6-18.2 24-30.4 43.3-30.4h26.7c5.8,0 10.4-4.7 10.4-10.4 0-15.7 12.8-28.5 28.5-28.5 15.7,0 28.5,12.8 28.5,28.5 0,5.8 4.7,10.4 10.4,10.4h26.7c19.3,0 36.7,12.2 43.3,30.4l8.2,22.8h-234.3l8.3-22.8zm333,337.5h-448.2v-324.9h88.5l-6.2,17c-2.8,10.5 6.4,14 9.8,14h264c11.1-1 11.4-10.7 9.8-14l-6.2-17h88.5v324.9z"/>
      <path d="m150.5,284.4c27.5,0 49.9-22.4 49.9-49.9 0-27.5-22.4-49.9-49.9-49.9s-49.9,22.4-49.9,49.9c-0.1,27.5 22.3,49.9 49.9,49.9zm0-79c16,0 29.1,13 29.1,29.1 0,16-13,29.1-29.1,29.1-16,0-29.1-13-29.1-29.1 0-16 13-29.1 29.1-29.1z"/>
      <path d="m150.5,291.2c-59.4,0-107.7,48.3-107.7,107.7 0,5.8 4.7,10.4 10.4,10.4h194.5c5.8,0 10.4-4.7 10.4-10.4 0.1-59.4-48.3-107.7-107.6-107.7zm-86.3,97.3c5.2-43 41.9-76.4 86.2-76.4 44.4,0 81.1,33.4 86.2,76.4h-172.4z"/>
      <path d="m277.3,248.4c0,5.8 4.7,10.4 10.4,10.4h161.5c5.8,0 10.4-4.7 10.4-10.4s-4.6-10.4-10.3-10.4h-161.6c-5.7,0-10.4,4.6-10.4,10.4z"/>
      <path d="m449.3,335.1h-161.6c-5.8,0-10.4,4.7-10.4,10.4 0,5.8 4.7,10.4 10.4,10.4h161.5c5.8,0 10.4-4.7 10.4-10.4 0.1-5.7-4.6-10.4-10.3-10.4z"/>
    </g>
  </g>
</svg>
