<?xml version='1.0' encoding='utf-8'?>
<!DOCTYPE svg PUBLIC '-//W3C//DTD SVG 1.1//EN' 'http://www.w3.org/Graphics/SVG/1.1/DTD/svg11.dtd'>
<svg version="1.1" xmlns="http://www.w3.org/2000/svg" viewBox="0 0 512 512" xmlns:xlink="http://www.w3.org/1999/xlink" enable-background="new 0 0 512 512">
  <g>
    <g fill="#231F20">
      <path d="m490.6,197.6h-224.2v-68.5c0-7 5.7-12.8 12.8-12.8h42.8c7,0 12.8,5.7 12.8,12.8 0,18.5 15.1,33.6 33.6,33.6h47.6c18.5,0 33.6-15.1 33.6-33.6v-49.5c0-5.8-4.7-10.4-10.4-10.4-5.8,0-10.4,4.7-10.4,10.4v49.5c0,7-5.7,12.8-12.8,12.8h-47.6c-7,0-12.8-5.7-12.8-12.8 0-18.5-15.1-33.6-33.6-33.6h-42.8c-18.5,0-33.6,15.1-33.6,33.6v68.5h-224.2c-5.8,0-10.4,4.7-10.4,10.4v224.3c0,5.8 4.7,10.4 10.4,10.4h469.1c5.8,0 10.4-4.7 10.4-10.4v-224.2c0.1-5.8-4.6-10.5-10.3-10.5zm-10.5,224.3h-448.2v-203.4h448.3v203.4z"/>
      <path d="m67.5,264.1h21.6c5.8,0 10.4-4.7 10.4-10.4 0-5.8-4.7-10.4-10.4-10.4h-21.6c-5.8,0-10.4,4.7-10.4,10.4 0,5.7 4.7,10.4 10.4,10.4z"/>
      <path d="m156.4,264.1h21.6c5.8,0 10.4-4.7 10.4-10.4 0-5.8-4.7-10.4-10.4-10.4h-21.6c-5.8,0-10.4,4.7-10.4,10.4-0.1,5.7 4.6,10.4 10.4,10.4z"/>
      <path d="m245.2,264.1h21.6c5.8,0 10.4-4.7 10.4-10.4 0-5.8-4.7-10.4-10.4-10.4h-21.6c-5.8,0-10.4,4.7-10.4,10.4 0,5.7 4.6,10.4 10.4,10.4z"/>
      <path d="m334,264.1h21.6c5.8,0 10.4-4.7 10.4-10.4 0-5.8-4.7-10.4-10.4-10.4h-21.6c-5.8,0-10.4,4.7-10.4,10.4 0,5.7 4.7,10.4 10.4,10.4z"/>
      <path d="m422.9,264.1h21.6c5.8,0 10.4-4.7 10.4-10.4 0-5.8-4.7-10.4-10.4-10.4h-21.6c-5.8,0-10.4,4.7-10.4,10.4 0,5.7 4.6,10.4 10.4,10.4z"/>
      <path d="m67.5,330.6h21.6c5.8,0 10.4-4.7 10.4-10.4 0-5.8-4.7-10.4-10.4-10.4h-21.6c-5.8,0-10.4,4.7-10.4,10.4 0,5.8 4.7,10.4 10.4,10.4z"/>
      <path d="m156.4,330.6h21.6c5.8,0 10.4-4.7 10.4-10.4 0-5.8-4.7-10.4-10.4-10.4h-21.6c-5.8,0-10.4,4.7-10.4,10.4-0.1,5.8 4.6,10.4 10.4,10.4z"/>
      <path d="m245.2,330.6h21.6c5.8,0 10.4-4.7 10.4-10.4 0-5.8-4.7-10.4-10.4-10.4h-21.6c-5.8,0-10.4,4.7-10.4,10.4 0,5.8 4.6,10.4 10.4,10.4z"/>
      <path d="m334,330.6h21.6c5.8,0 10.4-4.7 10.4-10.4 0-5.8-4.7-10.4-10.4-10.4h-21.6c-5.8,0-10.4,4.7-10.4,10.4 0,5.8 4.7,10.4 10.4,10.4z"/>
      <path d="m422.9,330.6h21.6c5.8,0 10.4-4.7 10.4-10.4 0-5.8-4.7-10.4-10.4-10.4h-21.6c-5.8,0-10.4,4.7-10.4,10.4 0,5.8 4.6,10.4 10.4,10.4z"/>
      <path d="m67.5,397.2h21.6c5.8,0 10.4-4.7 10.4-10.4 0-5.8-4.7-10.4-10.4-10.4h-21.6c-5.8,0-10.4,4.7-10.4,10.4 0,5.7 4.7,10.4 10.4,10.4z"/>
      <path d="m156.4,397.2h199.3c5.8,0 10.4-4.7 10.4-10.4 0-5.8-4.7-10.4-10.4-10.4h-199.3c-5.8,0-10.4,4.7-10.4,10.4-0.1,5.7 4.6,10.4 10.4,10.4z"/>
      <path d="m422.9,397.2h21.6c5.8,0 10.4-4.7 10.4-10.4 0-5.8-4.7-10.4-10.4-10.4h-21.6c-5.8,0-10.4,4.7-10.4,10.4 0,5.7 4.6,10.4 10.4,10.4z"/>
    </g>
  </g>
</svg>
