<?xml version='1.0' encoding='utf-8'?>
<!DOCTYPE svg PUBLIC '-//W3C//DTD SVG 1.1//EN' 'http://www.w3.org/Graphics/SVG/1.1/DTD/svg11.dtd'>
<svg version="1.1" xmlns="http://www.w3.org/2000/svg" viewBox="0 0 512 512" xmlns:xlink="http://www.w3.org/1999/xlink" enable-background="new 0 0 512 512">
  <g>
    <g fill="#231F20">
      <path d="m275.6,146.3c-3.5-0.6-11.3,0.7-12.1,10.3v74.5c0,2.4 0.8,4.7 2.3,6.5l46.4,58.2c7.2,7 13.9,2.7 15.9,0.5 15.1-16.7 23.4-38.3 23.4-60.6 5.68434e-14-44.6-31.9-82.5-75.9-89.4zm44.5,126l-35.8-44.9v-57.4c27.4,9.7 46.3,35.6 46.3,65.6 0,13.1-3.7,25.7-10.5,36.7z"/>
      <path d="m249.1,239.1c-0.4-0.5-0.6-1-0.6-1.6v-79c0.2-3.7-3.3-11.6-12.1-10.3-44.1,6.7-75.9,44.8-75.9,89.3 0,50 40.6,90.6 90.6,90.6 15.5,0 30.8-4 44.3-11.6 2.7-1.5 8.6-7.5 3-15.6l-49.3-61.8zm2,68.1c-38.5,0-69.8-31.3-69.8-69.8 0-30.1 18.9-56 46.3-65.7v65.7c0,5.3 1.8,10.5 5.1,14.6l41,51.3c-7.2,2.6-14.8,3.9-22.6,3.9z"/>
      <path d="m65.3,367.7h381.4c5.8,0 10.4-4.7 10.4-10.4v-240.4c0-5.8-4.7-10.4-10.4-10.4h-381.4c-5.8,0-10.4,4.7-10.4,10.4v240.4c0,5.8 4.6,10.4 10.4,10.4zm10.4-240.3h360.6v219.5h-360.6v-219.5z"/>
      <path d="m490.6,384.6h-469.2c-5.8,0-10.4,4.7-10.4,10.4 0,5.8 4.7,10.4 10.4,10.4h469.1c5.8,0 10.4-4.7 10.4-10.4 0.1-5.7-4.6-10.4-10.3-10.4z"/>
    </g>
  </g>
</svg>
