<?xml version='1.0' encoding='utf-8'?>
<!DOCTYPE svg PUBLIC '-//W3C//DTD SVG 1.1//EN' 'http://www.w3.org/Graphics/SVG/1.1/DTD/svg11.dtd'>
<svg version="1.1" xmlns="http://www.w3.org/2000/svg" viewBox="0 0 512 512" xmlns:xlink="http://www.w3.org/1999/xlink" enable-background="new 0 0 512 512">
  <g>
    <g fill="#231F20">
      <path d="m490.6,384.6h-469.2c-5.8,0-10.4,4.7-10.4,10.4 0,5.8 4.7,10.4 10.4,10.4h469.1c5.8,0 10.4-4.7 10.4-10.4 0.1-5.7-4.6-10.4-10.3-10.4z"/>
      <path d="m72.1,367.7h381.4c5.8,0 10.4-4.7 10.4-10.4v-240.4c0-5.8-4.7-10.4-10.4-10.4h-381.4c-5.8,0-10.4,4.7-10.4,10.4v240.4c7.10543e-15,5.8 4.7,10.4 10.4,10.4zm371-20.8h-349.3l80.7-101.3 45.4,43.4c2.1,2 8.5,5.8 15-0.7l78.2-89.5 39.9,49.9c2,2.5 9.5,7.4 16.5-0.3l73.6-99.7v198.2zm-360.5-219.5h350.3l-72.1,97.6-39.2-49c-1.9-2.4-9.1-7.3-16-0.3l-79.3,90.7-45.8-43.7c-2.1-2-9.4-5.8-15.4,1l-82.5,103.8v-200.1z"/>
    </g>
  </g>
</svg>
