<?xml version='1.0' encoding='utf-8'?>
<!DOCTYPE svg PUBLIC '-//W3C//DTD SVG 1.1//EN' 'http://www.w3.org/Graphics/SVG/1.1/DTD/svg11.dtd'>
<svg version="1.1" xmlns="http://www.w3.org/2000/svg" viewBox="0 0 512 512" xmlns:xlink="http://www.w3.org/1999/xlink" enable-background="new 0 0 512 512">
  <g>
    <g fill="#231F20">
      <path d="m159.6,354.9c0-27.1-19.5-49.8-45.2-54.7v-278.8c0-5.8-4.7-10.4-10.4-10.4-5.8,0-10.4,4.7-10.4,10.4v278.8c-25.7,4.9-45.2,27.5-45.2,54.7 0,27.1 19.5,49.8 45.2,54.7v81c0,5.8 4.7,10.4 10.4,10.4 5.8,0 10.4-4.7 10.4-10.4v-81c25.7-4.9 45.2-27.6 45.2-54.7zm-55.7,34.8c-19.2,0-34.8-15.6-34.8-34.8 0-19.2 15.6-34.8 34.8-34.8 19.2,0 34.8,15.6 34.8,34.8 0,19.2-15.6,34.8-34.8,34.8z"/>
      <path d="m311.7,165.5c0-27.1-19.5-49.8-45.2-54.7v-89.4c0-5.8-4.7-10.4-10.4-10.4-5.8,0-10.4,4.7-10.4,10.4v89.4c-25.7,4.9-45.2,27.5-45.2,54.7 0,27.1 19.5,49.8 45.2,54.7v270.4c0,5.8 4.7,10.4 10.4,10.4 5.8,0 10.4-4.7 10.4-10.4v-270.4c25.6-4.9 45.2-27.5 45.2-54.7zm-55.7,34.9c-19.2,0-34.8-15.6-34.8-34.8 0-19.2 15.6-34.8 34.8-34.8 19.2,0 34.8,15.6 34.8,34.8 0,19.1-15.6,34.8-34.8,34.8z"/>
      <path d="m463.8,290.7c0-27.1-19.5-49.8-45.2-54.7v-214.6c0-5.8-4.7-10.4-10.4-10.4-5.8,0-10.4,4.7-10.4,10.4v214.6c-25.7,4.9-45.2,27.5-45.2,54.7s19.5,49.8 45.2,54.7v145.2c0,5.8 4.7,10.4 10.4,10.4 5.8,0 10.4-4.7 10.4-10.4v-145.2c25.7-4.9 45.2-27.6 45.2-54.7zm-55.7,34.8c-19.2,0-34.8-15.6-34.8-34.8 0-19.2 15.6-34.8 34.8-34.8 19.2,0 34.8,15.6 34.8,34.8-5.68434e-14,19.2-15.6,34.8-34.8,34.8z"/>
    </g>
  </g>
</svg>
