<?xml version='1.0' encoding='utf-8'?>
<!DOCTYPE svg PUBLIC '-//W3C//DTD SVG 1.1//EN' 'http://www.w3.org/Graphics/SVG/1.1/DTD/svg11.dtd'>
<svg version="1.1" xmlns="http://www.w3.org/2000/svg" viewBox="0 0 512 512" xmlns:xlink="http://www.w3.org/1999/xlink" enable-background="new 0 0 512 512">
  <g>
    <path fill="#231F20" d="m496.6,102.7c-4.7-3.3-11.2-2.2-14.5,2.6l-141.7,202.6c-7.5-3.8-16-6-24.9-6-6.1,0-12,1-17.5,2.9l-60.6-107.9c11.9-10.1 19.5-25.2 19.5-42 0-30.5-24.8-55.3-55.3-55.3s-55.3,24.8-55.3,55.3c0,14.2 5.4,27.2 14.2,37l-147.5,195c-3.5,4.6-2.6,11.2 2,14.6 6.1,4.6 12.6,1 14.6-2l147.5-195c7.4,3.6 15.6,5.7 24.4,5.7 6.2,0 12.1-1 17.7-2.9l60.6,107.7c-12,10.1-19.6,25.3-19.6,42.1 0,30.5 24.8,55.3 55.3,55.3 30.5,0 55.3-24.8 55.3-55.3 0-14-5.2-26.7-13.8-36.5l142.2-203.4c3.2-4.7 2.1-11.2-2.6-14.5zm-329.4,52.1c0-19 15.4-34.4 34.4-34.4 19,0 34.4,15.4 34.4,34.4 0,19-15.4,34.4-34.4,34.4-18.9-2.84217e-14-34.4-15.4-34.4-34.4zm148.3,236.8c-19,0-34.4-15.4-34.4-34.4 0-19 15.4-34.4 34.4-34.4 19,0 34.4,15.4 34.4,34.4 0,18.9-15.5,34.4-34.4,34.4z"/>
  </g>
</svg>
