<?xml version='1.0' encoding='utf-8'?>
<!DOCTYPE svg PUBLIC '-//W3C//DTD SVG 1.1//EN' 'http://www.w3.org/Graphics/SVG/1.1/DTD/svg11.dtd'>
<svg version="1.1" xmlns="http://www.w3.org/2000/svg" viewBox="0 0 512 512" xmlns:xlink="http://www.w3.org/1999/xlink" enable-background="new 0 0 512 512">
  <g>
    <g fill="#231F20">
      <path d="m108.9,206.6c-5.8,0-10.4,4.7-10.4,10.4v39.3c0,5.8 4.7,10.4 10.4,10.4 5.8,0 10.4-4.7 10.4-10.4v-39.3c-1.42109e-14-5.8-4.6-10.4-10.4-10.4z"/>
      <path d="m161.4,186.2c-5.8,0-10.4,4.7-10.4,10.4v59.6c0,5.8 4.7,10.4 10.4,10.4s10.4-4.7 10.4-10.4v-59.6c0-5.7-4.6-10.4-10.4-10.4z"/>
      <path d="m213.9,155.4c-5.8,0-10.4,4.7-10.4,10.4v90.4c0,5.8 4.7,10.4 10.4,10.4s10.4-4.7 10.4-10.4v-90.4c0-5.7-4.6-10.4-10.4-10.4z"/>
      <path d="m266.4,108.7c-5.8,0-10.4,4.7-10.4,10.4v137.2c0,5.8 4.7,10.4 10.4,10.4 5.8,0 10.4-4.7 10.4-10.4v-137.2c5.68434e-14-5.8-4.6-10.4-10.4-10.4z"/>
      <path d="m483.7,400.3l-136.6-136.6c11-23 17.2-48.8 17.2-76 0-97.4-79.2-176.7-176.7-176.7-97.4,0-176.6,79.3-176.6,176.7 0,97.4 79.2,176.6 176.6,176.6 27.2,0 53-6.2 76-17.2l136.6,136.6c36.6,32.5 73,9.7 83.5,0 8.4-7.8 33.4-46-5.68434e-14-83.4zm-296.1-56.8c-85.9,0-155.8-69.9-155.8-155.8 0-85.9 69.9-155.8 155.8-155.8 85.9,0 155.8,69.9 155.8,155.8 0.1,85.9-69.8,155.8-155.8,155.8zm281.4,125.5c-14.9,14.9-39.1,14.9-54,0l-132.4-132.4c21.7-13.9 40.1-32.3 54-54l132.4,132.4c21.3,23.3 7.2,46.8 0,54z"/>
    </g>
  </g>
</svg>
