<?xml version='1.0' encoding='utf-8'?>
<!DOCTYPE svg PUBLIC '-//W3C//DTD SVG 1.1//EN' 'http://www.w3.org/Graphics/SVG/1.1/DTD/svg11.dtd'>
<svg version="1.1" xmlns="http://www.w3.org/2000/svg" viewBox="0 0 512 512" xmlns:xlink="http://www.w3.org/1999/xlink" enable-background="new 0 0 512 512">
  <g>
    <g fill="#231F20">
      <path d="m188.5,165.2h49.8v105.2c2.2,14.5 16.4,11.3 19.5,5.1l74.7-133.3c2.8-4.6 1.3-15-9.1-15.5h-49.8v-105.3c1-7.8-11.6-16.5-19.5-5.1l-74.7,133.3c-4.9,10.6 5,16.1 9.1,15.6zm64.3-103.8v75.7c0,5.8 4.7,10.4 10.4,10.4h42.5l-46.5,83v-75.7c0-5.8-4.7-10.4-10.4-10.4h-42.5l46.5-83z"/>
      <path d="m445.3,54.4h-61.3c-5.8,0-10.4,4.7-10.4,10.4v236.4c0,64.9-52.8,117.6-117.6,117.6-64.9,0-117.6-52.8-117.6-117.6v-236.4c0-5.8-4.7-10.4-10.4-10.4h-61.3c-5.8,0-10.4,4.7-10.4,10.4v236.4c-7.10543e-15,110.2 89.6,199.8 199.7,199.8 110.1,0 199.8-89.6 199.8-199.8v-236.4c-0.1-5.8-4.7-10.4-10.5-10.4zm-368.2,20.8h40.4v31.5h-40.4v-31.5zm357.8,226c0,98.6-80.3,178.9-178.9,178.9-98.6,0-178.9-80.3-178.9-178.9v-173.7h40.4v173.7c0,76.4 62.1,138.5 138.5,138.5 76.4,0 138.5-62.1 138.5-138.5v-173.7h40.4v173.7zm0-194.5h-40.4v-31.5h40.4v31.5z"/>
    </g>
  </g>
</svg>
