<?xml version='1.0' encoding='utf-8'?>
<!DOCTYPE svg PUBLIC '-//W3C//DTD SVG 1.1//EN' 'http://www.w3.org/Graphics/SVG/1.1/DTD/svg11.dtd'>
<svg version="1.1" xmlns="http://www.w3.org/2000/svg" viewBox="0 0 512 512" xmlns:xlink="http://www.w3.org/1999/xlink" enable-background="new 0 0 512 512">
  <g>
    <g fill="#231F20">
      <path d="m496.4,244.6l-88.1-61.6v-161.6c0-5.8-4.7-10.4-10.4-10.4h-283.8c-5.8,0-10.4,4.7-10.4,10.4v161.6l-88.1,61.6c0,0-4.6,2.9-4.6,8.7v237.3c0,5.8 4.7,10.4 10.4,10.4h469.1c5.8,0 10.4-4.7 10.4-10.4v-237.4c0.1-5.8-4.5-8.6-4.5-8.6zm-24,8.6l-64.1,44.8v-89.6l64.1,44.8zm-347.8-221.3h262.9v280.6l-131.5,90.2-131.4-90.2v-280.6zm-20.9,176.5v89.6l-64.1-44.8 64.1-44.8zm-71.8,271.7v-206.9l218.2,150.7c5.3,3.4 10,1.2 11.8,0l218.2-150.7v206.9h-448.2z"/>
      <path d="m172.9,96.3h166.2c5.8,0 10.4-4.7 10.4-10.4 0-5.8-4.7-10.4-10.4-10.4h-166.2c-5.8,0-10.4,4.7-10.4,10.4 0,5.8 4.6,10.4 10.4,10.4z"/>
      <path d="m172.9,156.6h166.2c5.8,0 10.4-4.7 10.4-10.4 0-5.8-4.7-10.4-10.4-10.4h-166.2c-5.8,0-10.4,4.7-10.4,10.4 0,5.7 4.6,10.4 10.4,10.4z"/>
      <path d="m172.9,216.8h166.2c5.8,0 10.4-4.7 10.4-10.4 0-5.8-4.7-10.4-10.4-10.4h-166.2c-5.8,0-10.4,4.7-10.4,10.4 0,5.7 4.6,10.4 10.4,10.4z"/>
    </g>
  </g>
</svg>
