<?xml version='1.0' encoding='utf-8'?>
<!DOCTYPE svg PUBLIC '-//W3C//DTD SVG 1.1//EN' 'http://www.w3.org/Graphics/SVG/1.1/DTD/svg11.dtd'>
<svg version="1.1" xmlns="http://www.w3.org/2000/svg" viewBox="0 0 512 512" xmlns:xlink="http://www.w3.org/1999/xlink" enable-background="new 0 0 512 512">
  <g>
    <path fill="#231F20" d="m279.2,196l74.7-75.5c1.9-1.9 3-4.6 3-7.3v-91.8c0-5.8-4.7-10.4-10.4-10.4h-181c-5.8,0-10.4,4.7-10.4,10.4v91.8c0,2.7 1.1,5.4 3,7.3l74.7,75.5c-73.6,11.2-130.1,74.9-130.1,151.6 0,84.6 68.8,153.4 153.4,153.4s153.4-68.8 153.4-153.4c-0.1-76.7-56.7-140.4-130.3-151.6zm99.8,102.3l-77.4-11.2-35.3-71.6c51.2,3.9 94.4,37.1 112.7,82.8zm-70.6,73.8l11.2,65.5-58.8-30.9c-3.1-1.6-6.7-1.6-9.7,0l-58.8,30.9 11.2-65.5c0.6-3.4-0.5-6.8-3-9.2l-47.5-46.4 65.8-9.6c3.4-0.5 6.3-2.6 7.8-5.7l29.4-59.6 29.4,59.6c1.5,3.1 4.4,5.2 7.8,5.7l65.8,9.6-47.6,46.4c-2.4,2.4-3.5,5.8-3,9.2zm-132.5-340.2h160.2v77l-80.1,80.9-80.1-80.9v-77zm69.8,183.6l-35.4,71.6-77.3,11.2c18.3-45.7 61.5-78.9 112.7-82.8zm-122.2,132.1c0-9.6 1-18.9 3-27.9l55.7,54.2-12.7,73.9c-28.2-24.2-46-60.2-46-100.2zm66.4,114.8l66.1-34.8 66.1,34.8c-19.5,11.3-42,17.7-66.1,17.7-24.1,5.68434e-14-46.6-6.4-66.1-17.7zm152.7-14.5l-12.7-73.9 55.7-54.3c1.9,9 3,18.3 3,27.9-0.1,40-17.9,76-46,100.3z"/>
  </g>
</svg>
