<?xml version='1.0' encoding='utf-8'?>
<!DOCTYPE svg PUBLIC '-//W3C//DTD SVG 1.1//EN' 'http://www.w3.org/Graphics/SVG/1.1/DTD/svg11.dtd'>
<svg version="1.1" xmlns="http://www.w3.org/2000/svg" viewBox="0 0 512 512" xmlns:xlink="http://www.w3.org/1999/xlink" enable-background="new 0 0 512 512">
  <g>
    <g fill="#231F20">
      <path d="m315.4,201.3l78.8-175.6c2.3-3.4 1.2-14.2-9.5-14.7h-91.5c-4.1,0-7.8,2.4-9.5,6.2l-27.7,61.6-27.7-61.7c-1.7-3.7-5.4-6.2-9.5-6.2h-91.5c-11.1,0.8-11.3,11.2-9.5,14.7l78.8,175.6c-56.5,23.4-96.3,79.1-96.3,143.9 0,85.9 69.9,155.7 155.7,155.7s155.7-69.9 155.7-155.7c0-64.7-39.8-120.4-96.3-143.8zm-49.9-92.7l34.4-76.7h68.7l-70.7,157.7h-68.7l36.3-81zm-122.1-76.7h68.7l32.5,72.5-34.3,76.5-66.9-149zm112.6,448.2c-74.4,0-134.9-60.5-134.9-134.9 0-74.4 60.5-134.9 134.9-134.9s134.9,60.5 134.9,134.9c0,74.4-60.5,134.9-134.9,134.9z"/>
      <path d="m383,303.5c-1.4-4.3-5.4-7.2-9.9-7.2h-81.9l-25.3-77.8c-1.4-4.3-5.4-7.2-9.9-7.2s-8.5,2.9-9.9,7.2l-25.3,77.8h-81.9c-4.5,0-8.5,2.9-9.9,7.2-1.4,4.3 0.1,9 3.8,11.6l66.2,48.1-25.3,77.9c-1.4,4.3 0.1,9 3.8,11.6 3.7,2.7 8.6,2.7 12.3,0l66.2-48.1 66.2,48.1c5.5,3.7 10.4,1.3 12.3,0 3.7-2.6 5.2-7.4 3.8-11.6l-25.3-77.8 66.2-48.1c3.7-2.7 5.2-7.4 3.8-11.7zm-88.4,47.4c-3.7,2.6-5.2,7.4-3.8,11.6l17.7,54.5-46.4-33.7c-1.8-1.3-4-2-6.1-2s-4.3,0.7-6.1,2l-46.4,33.7 17.7-54.5c1.4-4.3-0.1-9-3.8-11.6l-46.4-33.8h57.3c4.5,0 8.5-2.9 9.9-7.2l17.7-54.5 17.7,54.5c1.4,4.3 5.4,7.2 9.9,7.2h57.5l-46.4,33.8z"/>
    </g>
  </g>
</svg>
