<?xml version='1.0' encoding='utf-8'?>
<!DOCTYPE svg PUBLIC '-//W3C//DTD SVG 1.1//EN' 'http://www.w3.org/Graphics/SVG/1.1/DTD/svg11.dtd'>
<svg version="1.1" xmlns="http://www.w3.org/2000/svg" viewBox="0 0 512 512" xmlns:xlink="http://www.w3.org/1999/xlink" enable-background="new 0 0 512 512">
  <g>
    <g fill="#231F20">
      <path d="m493.8,281.4l-44.8-31.1c-4.7-3.3-11.2-2.1-14.5,2.6-3.3,4.7-2.1,11.2 2.6,14.5l44.8,31.1c6.7,4.1 12.5,0.3 14.5-2.6 3.3-4.7 2.2-11.2-2.6-14.5z"/>
      <path d="m444.6,161.4l50.1-21.6c5.3-2.3 7.7-8.4 5.4-13.7-2.3-5.3-8.4-7.7-13.7-5.4l-50.1,21.6c-7,3.5-6.8,10.5-5.4,13.7 2.2,5.3 8.4,7.7 13.7,5.4z"/>
      <path d="m349.1,136.3v-63c-1.9-12.8-12.4-11.6-19.2-7.3-67.5,32.9-138.3,46.6-204.7,39.4-6.9-0.7-13.9-0.8-20.8-0.1-50.8,4.7-90.9,46.7-93.3,97.8-1.3,28.5 8.8,55.5 28.4,76.1 11.4,12 25.1,20.8 40.2,26.1l25.2,108.4c4.7,19.9 24.3,35.5 44,35.5 33.9,0 33.6-29.7 31.1-40.2l-23-99.1c61.5,0.6 118,13.3 168.3,37.8 0,0 20.9,14.3 23.8-5.1v-63c35-5.1 61.9-35.2 61.9-71.6s-26.9-66.6-61.9-71.7zm-189.4,277.3c0,0.1 0,0.1 0,0 1,4.3 0.8,14.8-10.8,14.6-10.4-0.2-21.2-8.9-23.7-19.4l-22.8-98h33.4l23.9,102.8zm168.6-87.6c-52.9-24.6-111.9-37-175.8-37-10.9,0-21.9,0.4-33,1.1-24.4,1.7-48-7.6-64.9-25.3-15.7-16.4-23.7-38-22.7-60.8 1.9-40.7 33.9-74.3 74.4-78 5.6-0.5 11.2-0.5 16.7,0.1 66.6,7.2 137.5-5.4 205.3-36.3v236.2zm20.8-67.6v-100.9c23.4,4.8 41.1,25.6 41.1,50.5s-17.6,45.6-41.1,50.4z"/>
      <path d="m440.4,218.4h50.2c5.8,0 10.4-4.7 10.4-10.4s-4.7-10.4-10.4-10.4h-50.2c-5.8,0-10.4,4.7-10.4,10.4s4.6,10.4 10.4,10.4z"/>
    </g>
  </g>
</svg>
