<?xml version='1.0' encoding='utf-8'?>
<!DOCTYPE svg PUBLIC '-//W3C//DTD SVG 1.1//EN' 'http://www.w3.org/Graphics/SVG/1.1/DTD/svg11.dtd'>
<svg version="1.1" xmlns="http://www.w3.org/2000/svg" viewBox="0 0 512 512" xmlns:xlink="http://www.w3.org/1999/xlink" enable-background="new 0 0 512 512">
  <g>
    <g fill="#231F20">
      <path d="m402.4,11h-292.8c-5.8,0-10.4,4.7-10.4,10.4v469.1c0,5.8 4.7,10.4 10.4,10.4h292.8c5.8,0 10.4-4.7 10.4-10.4v-469.1c5.68434e-14-5.7-4.6-10.4-10.4-10.4zm-10.4,469.1h-272v-48.8h272v48.8zm0-69.6h-272v-309h272v309zm0-329.9h-272v-48.7h272v48.7z"/>
      <path d="m224.4,66.7h63.2c5.8,0 10.4-4.7 10.4-10.4s-4.7-10.4-10.4-10.4h-63.2c-5.8,0-10.4,4.7-10.4,10.4s4.6,10.4 10.4,10.4z"/>
      <path d="m245.9,466.2h20.3c5.8,0 10.4-4.7 10.4-10.4s-4.7-10.4-10.4-10.4h-20.3c-5.8,0-10.4,4.7-10.4,10.4s4.6,10.4 10.4,10.4z"/>
    </g>
    <path fill="#231F20" d="m265.8,319.6c6.5-1.2 11.8-4.2 15.9-9.1 4.1-4.8 6.1-10.5 6.1-17 0-5.8-1.7-10.9-5.2-15.1-3.4-4.2-9.1-7.5-16.9-9.7v50.9h0.1zm-18.9-139c-5.1,1.7-9.2,4.7-12.3,8.9-3,4.2-4.6,8.8-4.6,13.8 0,4.6 1.4,8.9 4.2,12.9 2.8,4 7,7.2 12.7,9.6v-45.2h2.84217e-14zm0,137.1v-54.7c-17.1-4.9-29.6-12.3-37.6-22.1-8-9.9-12-21.9-12-36 0-14.3 4.5-26.3 13.5-36 9-9.7 21-15.3 36-16.8v-12.9h18.9v12.9c13.8,1.7 24.9,6.4 33.1,14.2 8.2,7.8 13.4,18.2 15.7,31.3l-33.1,4.3c-2-10.3-7.2-17.2-15.7-20.9v51c20.9,5.7 35.1,13 42.7,22 7.6,9 11.4,20.6 11.4,34.7 0,15.8-4.8,29-14.3,39.8-9.5,10.8-22.8,17.4-39.8,19.9v24.4h-18.9v-23.8c-15.1-1.8-27.3-7.4-36.7-16.9-9.4-9.4-15.4-22.7-18-39.8l34.1-3.7c1.4,7 4,13 7.8,18 3.9,5.2 8.1,8.9 12.9,11.1z"/>
  </g>
</svg>
