<?xml version='1.0' encoding='utf-8'?>
<!DOCTYPE svg PUBLIC '-//W3C//DTD SVG 1.1//EN' 'http://www.w3.org/Graphics/SVG/1.1/DTD/svg11.dtd'>
<svg version="1.1" xmlns="http://www.w3.org/2000/svg" viewBox="0 0 512 512" xmlns:xlink="http://www.w3.org/1999/xlink" enable-background="new 0 0 512 512">
  <g>
    <g fill="#231F20">
      <path d="m201.4,116.6c-71.8,0-130.2,81.5-130.2,181.7s58.4,181.7 130.2,181.7c71.8,0 130.2-81.5 130.2-181.7s-58.4-181.7-130.2-181.7zm0,384.4c-83.3,0-151.1-90.9-151.1-202.6s67.8-202.6 151.1-202.6 151.1,90.9 151.1,202.6-67.8,202.6-151.1,202.6z"/>
      <path d="m201.4,225.8c-5.8,0-10.4-4.7-10.4-10.4v-57.8c0-5.8 4.7-10.4 10.4-10.4 5.8,0 10.4,4.7 10.4,10.4v57.8c0,5.8-4.6,10.4-10.4,10.4z"/>
      <path d="m201.4,116.6c-5.8,0-10.4-4.7-10.4-10.4v-45.1c0-27.6 22.5-50.1 50.1-50.1h80.6c27.6,0 50.1,22.5 50.1,50.1 0,16.1 13.1,29.2 29.2,29.2h10.6c16.1,0 29.2-13.1 29.2-29.2v-39.7c0-5.8 4.7-10.4 10.4-10.4 5.8,0 10.4,4.7 10.4,10.4v39.7c0,27.6-22.5,50.1-50.1,50.1h-10.5c-27.6,0-50.1-22.5-50.1-50.1 0-16.1-13.1-29.3-29.3-29.3h-80.6c-16.1,0-29.2,13.1-29.2,29.3v45.1c2.84217e-14,5.8-4.6,10.4-10.4,10.4z"/>
      <g>
        <path d="m191,157.6v57.8c0,5.8 4.7,10.4 10.4,10.4 5.8,0 10.4-4.7 10.4-10.4v-57.8c0-5.8-4.7-10.4-10.4-10.4-5.7,2.84217e-14-10.4,4.6-10.4,10.4z"/>
        <path d="m451.3,11c-5.8,0-10.4,4.7-10.4,10.4v39.7c0,16.1-13.1,29.2-29.2,29.2h-10.7c-16.1,0-29.2-13.1-29.2-29.2 0-27.6-22.5-50.1-50.1-50.1h-80.6c-27.6,7.10543e-15-50.1,22.5-50.1,50.1v35.2c-78.5,7.2-140.7,95.1-140.7,202.1 0,111.7 67.8,202.6 151.1,202.6s151.1-90.9 151.1-202.6c0-107-62.2-194.9-140.7-202.1v-35.2c0-16.1 13.1-29.3 29.2-29.3h80.6c16.1,0 29.3,13.1 29.3,29.3 0,27.6 22.5,50.1 50.1,50.1h10.6c27.6,0 50.1-22.5 50.1-50.1v-39.7c-1.13687e-13-5.7-4.7-10.4-10.4-10.4zm-119.7,287.4c0,100.2-58.4,181.7-130.2,181.7-71.8,0-130.2-81.5-130.2-181.7 0-100.2 58.4-181.7 130.2-181.7 71.8-0.1 130.2,81.5 130.2,181.7z"/>
      </g>
    </g>
  </g>
</svg>
