<?xml version='1.0' encoding='utf-8'?>
<!DOCTYPE svg PUBLIC '-//W3C//DTD SVG 1.1//EN' 'http://www.w3.org/Graphics/SVG/1.1/DTD/svg11.dtd'>
<svg version="1.1" xmlns="http://www.w3.org/2000/svg" viewBox="0 0 512 512" xmlns:xlink="http://www.w3.org/1999/xlink" enable-background="new 0 0 512 512">
  <g>
    <path fill="#231F20" d="m216.3,45.4c-106,15.4-184.4,105.4-184.4,213.8-7.10543e-15,119.2 97,216.2 216.2,216.2 52,0 101.7-18.6 141-52.5l-163.5-163.5c-6-6-9.3-14-9.3-22.5v-191.5l0-0zm31.7,450.8c-130.7,0-237-106.3-237-237 0-123 92.3-224.5 214.7-235.9 2.9-0.3 5.8,0.7 8,2.7 2.2,2 3.4,4.8 3.4,7.7v203.3c0,2.9 1.1,5.7 3.2,7.7l171.2,171.2c2,2 3.1,4.7 3.1,7.5 0,2.8-1.2,5.5-3.2,7.4-44.4,42.2-102.4,65.4-163.4,65.4z"/>
    <g fill="#231F20">
      <path d="m286.3,15.8c-3-0.3-10.4,0.9-11.4,10.4v194.4c0,2.8 1.1,5.4 3.1,7.4l162.8,162.8c7.4,6.4 14.1,1.2 15.8-1.3 29-40.5 44.4-88.2 44.4-137.8-5.68434e-14-123-92.3-224.4-214.7-235.9zm160.3,351.4l-150.9-150.9v-178.3c105.9,15.5 184.4,105.4 184.4,213.8 0,41.1-11.5,80.7-33.5,115.4z"/>
      <path d="m240.3,244.7c-2.1-2.1-3.2-4.8-3.2-7.7v-203.4c-0.8-9.3-8.5-10.7-11.4-10.4-122.4,11.5-214.7,112.9-214.7,236 0,130.7 106.3,237 237,237 60.9,0 118.9-23.3 163.3-65.5 2-1.9 6-8.1 0.2-14.9l-171.2-171.1zm7.7,230.7c-119.2,0-216.2-97-216.2-216.2 0-108.4 78.5-198.3 184.4-213.8v191.5c0,8.5 3.3,16.5 9.3,22.5l163.5,163.4c-39.3,34-89,52.6-141,52.6z"/>
    </g>
  </g>
</svg>
