<?xml version='1.0' encoding='utf-8'?>
<!DOCTYPE svg PUBLIC '-//W3C//DTD SVG 1.1//EN' 'http://www.w3.org/Graphics/SVG/1.1/DTD/svg11.dtd'>
<svg version="1.1" xmlns="http://www.w3.org/2000/svg" viewBox="0 0 512 512" xmlns:xlink="http://www.w3.org/1999/xlink" enable-background="new 0 0 512 512">
  <g>
    <g fill="#231F20">
      <path d="m256,68.6c-50.6,0-91.8,41.2-91.8,91.8 0,50.6 41.2,91.8 91.8,91.8 50.6,0 91.8-41.2 91.8-91.8 0-50.6-41.2-91.8-91.8-91.8zm63.8,60.8h-40.2l-12.7-39.1c23.3,3.6 42.9,18.6 52.9,39.1zm-74.6-39.1l-12.7,39.1h-40.2c9.9-20.5 29.5-35.5 52.9-39.1zm-39.1,120.4c-13.8-13.2-23.4-35-20.3-59.9l32.2,23.4-11.9,36.5zm49.9,20.6c-11.1,0-21.5-2.5-30.8-7.1l30.8-22.4 30.9,22.4c-9.4,4.5-19.9,7.1-30.9,7.1zm19.7-69.6c-3.7,2.6-5.2,7.4-3.8,11.7l6,18.6-15.8-11.5c-1.8-1.3-4-2-6.1-2-2.1,0-4.3,0.7-6.1,2l-15.8,11.5 6-18.5c1.4-4.3-0.1-9-3.8-11.7l-15.8-11.5h19.5c4.5,0 8.5-2.9 9.9-7.2l6-18.6 6,18.6c1.4,4.3 5.4,7.2 9.9,7.2h19.5l-15.6,11.4zm30.2,49l-11.9-36.5 32.2-23.4c3.9,26.7-7.4,47-20.3,59.9z"/>
      <path d="m256,11c-82.4,0-149.4,67-149.4,149.4 0,78.5 134.5,324.8 140.2,335.2 1.8,3.3 5.3,5.4 9.1,5.4 3.8,0 7.3-2.1 9.1-5.4 5.7-10.4 140.2-256.7 140.2-335.2 0.2-82.4-66.8-149.4-149.2-149.4zm0,457.6c-30.8-57.8-128.5-246.2-128.5-308.2 0-70.9 57.7-128.5 128.5-128.5 70.9,0 128.5,57.7 128.5,128.5 0,62-97.7,250.4-128.5,308.2z"/>
    </g>
  </g>
</svg>
