<?xml version='1.0' encoding='utf-8'?>
<!DOCTYPE svg PUBLIC '-//W3C//DTD SVG 1.1//EN' 'http://www.w3.org/Graphics/SVG/1.1/DTD/svg11.dtd'>
<svg version="1.1" xmlns="http://www.w3.org/2000/svg" viewBox="0 0 512 512" xmlns:xlink="http://www.w3.org/1999/xlink" enable-background="new 0 0 512 512">
  <g>
    <g fill="#231F20">
      <path d="M256,11C160.4,11,82.7,88.7,82.7,184.3c0,92.4,158.2,303.6,165,312.5c5.1,6.7,13.5,4.2,16.7,0    c6.7-9,165-220.2,165-312.5C429.3,88.7,351.6,11,256,11z M256,473c-33-45.3-152.4-214.6-152.4-288.7    c0-84.1,68.4-152.5,152.4-152.5c84.1,0,152.5,68.4,152.5,152.5C408.4,258.3,289,427.7,256,473z"/>
      <path d="m265.2,161.8v-48c7.9,3.4 12.8,10 14.7,19.6l31.1-4.1c-2.1-12.3-7-22.1-14.7-29.4-7.7-7.3-18-11.8-31.1-13.3v-12.1h-17.8v12.2c-14.1,1.4-25.3,6.6-33.8,15.8s-12.7,20.4-12.7,33.8c0,13.3 3.7,24.5 11.2,33.8 7.5,9.3 19.3,16.2 35.3,20.8v51.4c-4.4-2.1-8.4-5.6-12-10.3-3.6-4.7-6.1-10.4-7.4-16.9l-32,3.4c2.5,16.1 8.1,28.6 16.9,37.4s20.3,14.1 34.5,15.8v22.3h17.8v-23c16-2.3 28.4-8.5 37.4-18.7 9-10.1 13.4-22.6 13.4-37.4 0-13.3-3.6-24.1-10.7-32.6-7.1-8.3-20.5-15.2-40.1-20.5zm-17.8-5.9c-5.3-2.3-9.3-5.3-11.9-9-2.6-3.7-3.9-7.8-3.9-12.1 0-4.7 1.4-9.1 4.3-13 2.9-3.9 6.7-6.7 11.5-8.3v42.4zm32.8,79.6c-3.8,4.5-8.8,7.4-15,8.5v-47.9c7.4,2.1 12.7,5.2 15.9,9.1 3.2,4 4.8,8.7 4.8,14.2 0.1,6.2-1.9,11.5-5.7,16.1z"/>
    </g>
  </g>
</svg>
