<?xml version='1.0' encoding='utf-8'?>
<!DOCTYPE svg PUBLIC '-//W3C//DTD SVG 1.1//EN' 'http://www.w3.org/Graphics/SVG/1.1/DTD/svg11.dtd'>
<svg version="1.1" xmlns="http://www.w3.org/2000/svg" viewBox="0 0 512 512" xmlns:xlink="http://www.w3.org/1999/xlink" enable-background="new 0 0 512 512">
  <g>
    <g fill="#231F20">
      <path d="m211.8,236.7l90.8-62.1c2.4-1.4 5.6-7.2 0-11.6l-90.8-62.1c-2.8-2.1-10.3-2.1-11,5.8v124.3c0.7,7.8 8.4,7.9 11,5.7zm3.1-116.8l71.4,48.8-71.4,48.8v-97.6z"/>
      <path d="m490.6,23h-469.2c-5.7,0-10.4,4.6-10.4,10.4v279.9c0,5.8 4.7,10.4 10.4,10.4h224.1v73.7c-17.2,4-30.8,17.5-34.8,34.8h-163.7c-5.8,0-10.4,4.7-10.4,10.4 0,5.8 4.7,10.4 10.4,10.4h163.8c4.7,20.6 23.2,36 45.2,36 22,0 40.5-15.4 45.2-36h163.8c5.8,0 10.4-4.7 10.4-10.4 0-5.8-4.7-10.4-10.4-10.4h-163.8c-4-17.2-17.6-30.8-34.8-34.8v-73.7h224.1c5.8,0 10.4-4.7 10.4-10.4v-279.9c0.1-5.8-4.6-10.4-10.3-10.4zm-209.1,419.6c0,14.1-11.5,25.5-25.5,25.5-14.1,0-25.5-11.5-25.5-25.5 0-14.1 11.5-25.5 25.5-25.5 14.1,0 25.5,11.4 25.5,25.5zm198.6-139.7h-448.2v-259.1h448.3v259.1z"/>
    </g>
  </g>
</svg>
