<?xml version='1.0' encoding='utf-8'?>
<!DOCTYPE svg PUBLIC '-//W3C//DTD SVG 1.1//EN' 'http://www.w3.org/Graphics/SVG/1.1/DTD/svg11.dtd'>
<svg version="1.1" xmlns="http://www.w3.org/2000/svg" viewBox="0 0 512 512" xmlns:xlink="http://www.w3.org/1999/xlink" enable-background="new 0 0 512 512">
  <g>
    <path fill="#231F20" d="m411.4,134.1h-71.8v-112.7c0-5.8-4.7-10.4-10.4-10.4-5.8,0-10.4,4.7-10.4,10.4v112.7h-125.6v-112.7c0-5.8-4.7-10.4-10.4-10.4-5.8,0-10.4,4.7-10.4,10.4v112.7h-71.8c-5.8,0-10.4,4.7-10.4,10.4v134.5c0,55.5 45,100.6 100.4,101v110.5c0,5.8 4.7,10.4 10.4,10.4h110.1c5.8,0 10.4-4.7 10.4-10.4v-110.5c55.4-0.3 100.4-45.5 100.4-101v-134.5c0-5.8-4.7-10.4-10.5-10.4zm-110.8,346h-89.3v-100.1h89.3v100.1zm100.4-201.1c0,44.2-36,80.1-80.2,80.1h-129.7c-44.2,0-80.2-35.9-80.2-80.1v-124.1h290v124.1z"/>
  </g>
</svg>
