<?xml version='1.0' encoding='utf-8'?>
<!DOCTYPE svg PUBLIC '-//W3C//DTD SVG 1.1//EN' 'http://www.w3.org/Graphics/SVG/1.1/DTD/svg11.dtd'>
<svg version="1.1" xmlns="http://www.w3.org/2000/svg" viewBox="0 0 512 512" xmlns:xlink="http://www.w3.org/1999/xlink" enable-background="new 0 0 512 512">
  <g>
    <g>
      <path fill="#231F20" d="m308.6,433.9h77.4v-99.7c0-4.2 2.7-7.9 6.7-9.2 4-1.3 8.4,0.2 10.8,3.6 8.1,11.5 21.2,18.3 35.2,18.3 23.7,0 43.1-19.3 43.1-43.1 0-23.7-19.3-43.1-43.1-43.1-14,0-27.1,6.8-35.2,18.3-2.4,3.4-6.8,4.9-10.8,3.6-4-1.3-6.7-5-6.7-9.2v-99.7h-99.7c-4.2,0-7.9-2.7-9.2-6.7-1.3-4 0.2-8.4 3.6-10.8 11.5-8.1 18.3-21.2 18.3-35.2 0-23.7-19.3-43.1-43.1-43.1-23.7,0-43.1,19.3-43.1,43.1 0,14 6.8,27.1 18.3,35.2 3.4,2.4 4.9,6.8 3.6,10.8-1.3,4-5,6.7-9.2,6.7h-99.5v99.7c0,4.2-2.7,7.9-6.7,9.2-4,1.3-8.4-0.2-10.8-3.6-8.1-11.5-21.2-18.3-35.2-18.3-23.7,0-43.1,19.3-43.1,43.1 0,23.7 19.3,43.1 43.1,43.1 14,0 27.1-6.8 35.2-18.3 2.4-3.4 6.8-4.9 10.8-3.6 4,1.3 6.7,5 6.7,9.2v99.7h77.4c-6.3-9.9-9.8-21.5-9.8-33.4 0-34.4 28-62.3 62.3-62.3 34.4,0 62.3,28 62.3,62.3 0.1,11.9-3.4,23.5-9.6,33.4zm87,19.2h-109.3c-4.2,0-7.9-2.7-9.2-6.7-1.3-4 0.2-8.4 3.6-10.8 11.5-8.1 18.3-21.2 18.3-35.2 0-23.7-19.3-43.1-43.1-43.1-23.7,0-43.1,19.3-43.1,43.1 0,14 6.8,27.1 18.3,35.2 3.4,2.4 4.9,6.8 3.6,10.8-1.3,4-5,6.7-9.2,6.7h-109.1c-5.3,0-9.6-4.3-9.6-9.6v-87.1c-9.9,6.3-21.4,9.8-33.4,9.8-34.4,0-62.3-28-62.3-62.3 0-34.4 28-62.3 62.3-62.3 12,0 23.6,3.5 33.4,9.8v-87.1c0-5.3 4.3-9.6 9.6-9.6h87.1c-6.3-9.9-9.8-21.5-9.8-33.4 0-34.4 28-62.3 62.3-62.3 34.4,0 62.3,28 62.3,62.3 0,12-3.5,23.6-9.8,33.4h87.1c5.3,0 9.6,4.3 9.6,9.6v87.1c9.9-6.3 21.4-9.8 33.4-9.8 34.4,0 62.3,28 62.3,62.3 0,34.4-28,62.3-62.3,62.3-12,0-23.6-3.5-33.4-9.8v87.1c-5.68434e-14,5.3-4.3,9.6-9.6,9.6z"/>
    </g>
  </g>
</svg>
