<?xml version='1.0' encoding='utf-8'?>
<!DOCTYPE svg PUBLIC '-//W3C//DTD SVG 1.1//EN' 'http://www.w3.org/Graphics/SVG/1.1/DTD/svg11.dtd'>
<svg version="1.1" xmlns="http://www.w3.org/2000/svg" viewBox="0 0 512 512" xmlns:xlink="http://www.w3.org/1999/xlink" enable-background="new 0 0 512 512">
  <g>
    <g fill="#231F20">
      <path d="m256,79.2c-5.8,0-10.4,4.7-10.4,10.4v14.4c0,5.8 4.7,10.4 10.4,10.4s10.4-4.7 10.4-10.4v-14.4c0-5.8-4.6-10.4-10.4-10.4z"/>
      <path d="m335.3,204.8l12.2-69.3c8.6-49.1-24.8-96.5-87.3-123.8-2.7-1.2-5.7-1.2-8.3,0-62.5,27.2-95.9,74.6-87.3,123.8l12.2,69.3c-62.2,19.6-101.8,60.7-101.8,106.5 0,29.5 16.7,57.5 46.6,79.4 5.2,3.8 10.1,1.4 11.8,0.3 3.6-2.4 5.4-6.7 4.5-10.9-0.7-3.4-11.9-43.2 57.3-70.1l1,5.9c3.7,21.2 28.9,36.6 59.8,36.6 30.9,0 56-15.4 59.8-36.6l1-5.9c69.9,28.1 58,66.7 57.3,70-0.9,4.2 0.9,8.6 4.5,10.9 5,3.2 10,1 11.8-0.3 30.1-21.7 46.6-49.9 46.6-79.4-5.68434e-14-45.7-39.6-86.8-101.7-106.4zm-218.1,154.5c-13.9-14.7-21.3-31.2-21.3-48.1 0-35.8 32.8-68.7 84.5-85.8l11.2,63.7c-40.9,14-68.6,40.2-74.4,70.2zm178-47c-1.6,9.3-17.1,19.4-39.2,19.4-22.1,0-37.6-10.1-39.2-19.4l-31.7-180.4c-6.7-38.1 20.4-75.8 70.9-99.2 50.5,23.3 77.6,61 70.9,99.2l-31.7,180.4zm99.6,47.1c-5.9-30-33.5-56.3-74.4-70.1l11.2-63.7c51.7,17 84.5,49.9 84.5,85.8 0.1,16.7-7.4,33.3-21.3,48z"/>
      <path d="m315.8,379.5c-5.8,0-10.4,4.7-10.4,10.4v63.3c0,5.8 4.7,10.4 10.4,10.4 5.8,0 10.4-4.7 10.4-10.4v-63.3c0-5.8-4.6-10.4-10.4-10.4z"/>
      <path d="m256,379.5c-5.8,0-10.4,4.7-10.4,10.4v100.7c0,5.8 4.7,10.4 10.4,10.4s10.4-4.7 10.4-10.4v-100.7c0-5.8-4.6-10.4-10.4-10.4z"/>
      <path d="m196.2,379.5c-5.8,0-10.4,4.7-10.4,10.4v63.3c0,5.8 4.7,10.4 10.4,10.4s10.4-4.7 10.4-10.4v-63.3c0-5.8-4.6-10.4-10.4-10.4z"/>
    </g>
  </g>
</svg>
