<?xml version='1.0' encoding='utf-8'?>
<!DOCTYPE svg PUBLIC '-//W3C//DTD SVG 1.1//EN' 'http://www.w3.org/Graphics/SVG/1.1/DTD/svg11.dtd'>
<svg version="1.1" xmlns="http://www.w3.org/2000/svg" viewBox="0 0 512 512" xmlns:xlink="http://www.w3.org/1999/xlink" enable-background="new 0 0 512 512">
  <g>
    <g fill="#231F20">
      <path d="m490.6,312.5h-50.3v-204c0-5.8-4.7-10.4-10.4-10.4-5.8,0-10.4,4.7-10.4,10.4v204h-398c-5.8,0-10.4,4.7-10.4,10.4v137.5c0,5.8 4.7,10.4 10.4,10.4h60v18.2c0,5.8 4.7,10.4 10.4,10.4s10.4-4.7 10.4-10.4v-18.2h307.4v18.2c0,5.8 4.7,10.4 10.4,10.4 5.8,0 10.4-4.7 10.4-10.4v-18.2h60c5.8,0 10.4-4.7 10.4-10.4v-137.4c0.1-5.8-4.6-10.5-10.3-10.5zm-10.5,137.5h-448.2v-116.6h448.3v116.6z"/>
      <path d="m142.6,402.1h19.7c5.8,0 10.4-4.7 10.4-10.4 0-5.8-4.7-10.4-10.4-10.4h-19.7c-5.8,0-10.4,4.7-10.4,10.4 0,5.8 4.7,10.4 10.4,10.4z"/>
      <path d="m246.1,402.1h19.7c5.8,0 10.4-4.7 10.4-10.4 0-5.8-4.7-10.4-10.4-10.4h-19.7c-5.8,0-10.4,4.7-10.4,10.4-2.84217e-14,5.8 4.7,10.4 10.4,10.4z"/>
      <path d="m349.6,402.1h19.7c5.8,0 10.4-4.7 10.4-10.4 0-5.8-4.7-10.4-10.4-10.4h-19.7c-5.8,0-10.4,4.7-10.4,10.4-5.68434e-14,5.8 4.7,10.4 10.4,10.4z"/>
      <path d="m367.6,127.1c-37,0-67.1,30.1-67.1,67.1 0,5.8 4.7,10.4 10.4,10.4 5.8,0 10.4-4.7 10.4-10.4 0-25.5 20.8-46.3 46.3-46.3 5.8,0 10.4-4.7 10.4-10.4 0.1-5.8-4.6-10.4-10.4-10.4z"/>
      <path d="m367.6,67.6c-69.8,0-126.6,56.8-126.6,126.6 0,5.8 4.7,10.4 10.4,10.4s10.4-4.7 10.4-10.4c0-58.3 47.5-105.8 105.8-105.8 5.8,0 10.4-4.7 10.4-10.4 0.1-5.8-4.6-10.4-10.4-10.4z"/>
      <path d="m196.3,204.6c5.8,0 10.4-4.7 10.4-10.4 0-88.7 72.2-160.9 160.9-160.9 5.8,0 10.4-4.7 10.4-10.4 0-5.8-4.7-10.4-10.4-10.4-100.2,0-181.7,81.5-181.7,181.7-2.84217e-14,5.8 4.7,10.4 10.4,10.4z"/>
    </g>
  </g>
</svg>
