<?xml version='1.0' encoding='utf-8'?>
<!DOCTYPE svg PUBLIC '-//W3C//DTD SVG 1.1//EN' 'http://www.w3.org/Graphics/SVG/1.1/DTD/svg11.dtd'>
<svg version="1.1" xmlns="http://www.w3.org/2000/svg" viewBox="0 0 512 512" xmlns:xlink="http://www.w3.org/1999/xlink" enable-background="new 0 0 512 512">
  <g>
    <g fill="#231F20">
      <path d="m367.2,346.9c-5.8,0-10.4,4.7-10.4,10.4 0,5.8 4.7,10.4 10.4,10.4h20v27.7c0,5.8 4.7,10.4 10.4,10.4 5.8,0 10.4-4.7 10.4-10.4v-27.7h20c5.8,0 10.4-4.7 10.4-10.4 0-5.8-4.7-10.4-10.4-10.4h-20v-225.9h20c5.8,0 10.4-4.7 10.4-10.4s-4.7-10.4-10.4-10.4h-20v-27.7c0-5.8-4.7-10.4-10.4-10.4-5.8,0-10.4,4.7-10.4,10.4v27.7h-20c-5.8,0-10.4,4.7-10.4,10.4s4.7,10.4 10.4,10.4h20v225.9h-20z"/>
      <path d="m189.5,352.5c65.4,0 118.6-53.2 118.6-118.6 0-65.4-53.2-118.6-118.6-118.6-65.4-1.42109e-14-118.5,53.2-118.5,118.6 0,65.4 53.1,118.6 118.5,118.6zm10.5-215.8c45.6,4.9 81.9,41.2 86.7,86.7h-86.7v-86.7zm0,107.6h86.7c-4.9,45.6-41.2,81.9-86.7,86.7v-86.7zm-20.9-107.6v86.7h-86.7c4.8-45.5 41.1-81.8 86.7-86.7zm0,107.6v86.7c-45.6-4.9-81.9-41.2-86.7-86.7h86.7z"/>
      <path d="m480.7,11h-449.4c-5.8,0-10.4,4.7-10.4,10.4v425c0,5.8 4.7,10.4 10.4,10.4h42.1v33.8c0,5.8 4.7,10.4 10.4,10.4h85.3c5.8,0 10.4-4.7 10.4-10.4v-33.8h152.8v33.8c0,5.8 4.7,10.4 10.4,10.4h85.3c5.8,0 10.4-4.7 10.4-10.4v-33.8h42.1c5.8,0 10.4-4.7 10.4-10.4v-425c0.2-5.7-4.5-10.4-10.2-10.4zm-321.9,469.1h-64.5v-23.3h64.5v23.3zm258.9,0h-64.4v-23.3h64.4v23.3zm52.5-44.1h-428.4v-404.1h428.5v404.1z"/>
    </g>
  </g>
</svg>
