<?xml version='1.0' encoding='utf-8'?>
<!DOCTYPE svg PUBLIC '-//W3C//DTD SVG 1.1//EN' 'http://www.w3.org/Graphics/SVG/1.1/DTD/svg11.dtd'>
<svg version="1.1" xmlns="http://www.w3.org/2000/svg" viewBox="0 0 512 512" xmlns:xlink="http://www.w3.org/1999/xlink" enable-background="new 0 0 512 512">
  <g fill="#231F20">
    <path d="m31.9,354.4h448.3v-267h-448.3v267h2.13163e-14zm458.7,20.8h-469.2c-5.8,0-10.4-4.7-10.4-10.4v-287.8c0-5.8 4.7-10.4 10.4-10.4h469.1c5.8,0 10.4,4.7 10.4,10.4v287.8c0.1,5.8-4.6,10.4-10.3,10.4z"/>
    <path d="m256,445.4c-5.8,0-10.4-4.7-10.4-10.4v-70.2c0-5.8 4.7-10.4 10.4-10.4 5.8,0 10.4,4.7 10.4,10.4v70.2c0,5.8-4.6,10.4-10.4,10.4z"/>
    <path d="m348.1,445.4h-184.2c-5.8,0-10.4-4.7-10.4-10.4 0-5.8 4.7-10.4 10.4-10.4h184.2c5.8,0 10.4,4.7 10.4,10.4 0,5.8-4.6,10.4-10.4,10.4z"/>
    <path d="m490.6,66.6h-469.2c-5.7,0-10.4,4.6-10.4,10.4v287.8c0,5.8 4.7,10.4 10.4,10.4h224.1v49.3h-81.7c-5.8,0-10.4,4.7-10.4,10.4 0,5.8 4.7,10.4 10.4,10.4h184.2c5.8,0 10.4-4.7 10.4-10.4 0-5.8-4.7-10.4-10.4-10.4h-81.7v-49.3h224.1c5.8,0 10.4-4.7 10.4-10.4v-287.8c0.2-5.8-4.5-10.4-10.2-10.4zm-390.1,287.8v-93.8h24.3v93.8h-24.3zm95.5,0v-123.1h24.3v123.1h-24.3zm95.6,0v-159.8h24.4v159.8h-24.4zm95.6,0v-205.9h24.3v205.9h-24.3zm92.9,0h-47.8v-216.3c0-5.8-4.7-10.4-10.4-10.4h-45.2c-5.8,0-10.4,4.7-10.4,10.4v216.3h-29.6v-170.2c0-5.8-4.7-10.4-10.4-10.4h-45.2c-5.8,0-10.4,4.7-10.4,10.4v170.2h-29.6v-133.5c0-5.8-4.7-10.4-10.4-10.4h-45.2c-5.8,0-10.4,4.7-10.4,10.4v133.5h-29.6v-104.2c0-5.8-4.7-10.4-10.4-10.4h-45.1c-5.8,0-10.4,4.7-10.4,10.4v104.2h-47.7v-267h448.3v267z"/>
  </g>
</svg>
