<?xml version='1.0' encoding='utf-8'?>
<!DOCTYPE svg PUBLIC '-//W3C//DTD SVG 1.1//EN' 'http://www.w3.org/Graphics/SVG/1.1/DTD/svg11.dtd'>
<svg version="1.1" xmlns="http://www.w3.org/2000/svg" viewBox="0 0 512 512" xmlns:xlink="http://www.w3.org/1999/xlink" enable-background="new 0 0 512 512">
  <g>
    <path fill="#231F20" d="m32.6,179.6l296.2,296.2 147-147-296.2-296.2-126.5,20.5-20.5,126.5zm296.2,321.4c-2.7,0-5.3-1-7.4-3.1l-307.3-307.3c-2.4-2.4-3.5-5.7-2.9-9l22.6-139.2c0.7-4.4 4.2-7.9 8.6-8.6l139.1-22.6c3.2-0.5 6.7,0.5 9,2.9l307.4,307.4c2,2 3.1,4.6 3.1,7.4 0,2.8-1.1,5.4-3.1,7.4l-161.7,161.6c-2.1,2.1-4.7,3.1-7.4,3.1z"/>
    <g fill="#231F20">
      <path d="m108.1,70.6c-20.7,0-37.5,16.8-37.5,37.5 0,20.7 16.8,37.5 37.5,37.5s37.5-16.8 37.5-37.5c0-20.7-16.8-37.5-37.5-37.5zm0,54.1c-9.2,0-16.6-7.5-16.6-16.6 0-9.2 7.5-16.6 16.6-16.6s16.6,7.5 16.6,16.6c1.42109e-14,9.2-7.4,16.6-16.6,16.6z"/>
      <path d="m497.9,321.4l-307.3-307.3c-2.4-2.4-5.8-3.5-9-2.9l-139.2,22.6c-4.4,0.7-7.9,4.2-8.6,8.6l-22.7,139.1c-0.5,3.3 0.5,6.7 2.9,9l307.4,307.4c6.5,5.7 12.7,2 14.7,0l161.8-161.8c2-1.9 5.9-8.2 0-14.7zm-169.1,154.4l-296.2-296.2 20.5-126.5 126.5-20.6 296.2,296.2-147,147.1z"/>
      <path d="m169.2,164.1c0.3,5.7 3.3,13.2 8.9,22.6 4.4,7.3 7.1,12 8.2,14.2 1.5,3.2 2.2,5.9 2,8-0.2,2.1-1.1,4-2.7,5.6-2.5,2.5-5.9,3.6-10.1,3.3s-8.5-2.8-13-7.3c-4.2-4.2-6.5-8.7-6.9-13.3-0.4-4.6 1.3-9.6 5.1-15l-14.9-12.3c-6.8,8.6-9.9,17.3-9.3,26 0.6,8.7 5.3,17.4 14.1,26.2 6,6 11.9,10.2 17.6,12.5 5.7,2.3 11.4,2.9 17,1.6 5.7-1.3 10.5-3.9 14.4-7.8 4.4-4.4 7.1-9 8.2-13.8 1.1-4.8 0.9-9.7-0.6-14.7-1.5-5-4.9-11.6-10.1-20-5.2-8.4-7.9-14.2-8.2-17.4-0.2-2.5 0.5-4.6 2.1-6.3 1.8-1.8 4-2.5 6.5-2.1 4,0.6 8,3 12,7 3.9,3.9 6.1,7.6 6.5,11.2 0.4,3.5-0.9,7.4-3.8,11.5l14.6,13.3c6.1-6.6 8.9-13.9 8.3-22.1-0.6-8.2-5.2-16.6-13.9-25.3-5.3-5.3-10.6-9-16-11.2-5.4-2.2-10.6-2.7-15.6-1.6-5.1,1.1-9.3,3.4-12.9,6.9-5.4,5.5-7.9,12.2-7.5,20.3z"/>
      <polygon points="243.7,312.7 255.3,301.1 216.7,262.5 235.5,243.7 270.2,278.4 281.9,266.7 247.2,232.1     262.5,216.8 299.8,254 311.5,242.3 260.2,191.1 191.2,260.2   "/>
      <path d="m286.8,287.6c-11,11-16.6,22.7-16.8,35-0.2,12.3 4.8,23.6 15.1,33.9 10.1,10.1 21.4,15.1 33.8,14.9s24.1-5.9 35.3-17.1c11.2-11.2 17-23.1 17.2-35.5 0.2-12.4-4.8-23.7-15-33.9-5.6-5.6-11.5-9.7-17.6-12.2-4.6-1.9-9.6-2.8-15.1-2.7-5.5,0.1-10.8,1.1-15.9,3-7,2.7-14,7.6-21,14.6zm38,1.4c7.5-0.4 14.1,2.2 19.8,8 5.7,5.7 8.4,12.3 8,19.7-0.4,7.4-4.6,15-12.5,22.9-8,8-15.8,12.2-23.4,12.7-7.6,0.4-14.1-2.1-19.7-7.7-5.6-5.6-8.1-12.2-7.7-19.8 0.4-7.6 4.5-15.4 12.4-23.2 7.9-8 15.6-12.2 23.1-12.6z"/>
    </g>
  </g>
</svg>
