<?xml version='1.0' encoding='utf-8'?>
<!DOCTYPE svg PUBLIC '-//W3C//DTD SVG 1.1//EN' 'http://www.w3.org/Graphics/SVG/1.1/DTD/svg11.dtd'>
<svg version="1.1" xmlns="http://www.w3.org/2000/svg" viewBox="0 0 512 512" xmlns:xlink="http://www.w3.org/1999/xlink" enable-background="new 0 0 512 512">
  <g>
    <path fill="#231F20" d="m366.2,392.5c-11.6,0-22.3,3.7-31.1,9.9l-138.1-128.5c2-5.6 3-11.6 3-17.9 0-6.3-1.1-12.3-3-17.9l138-128.5c8.8,6.2 19.6,9.9 31.1,9.9 29.9,0 54.2-24.3 54.2-54.2 0-29.9-24.3-54.2-54.2-54.2-29.9,0-54.2,24.3-54.2,54.2 0,10.8 3.2,20.9 8.7,29.3l-134.5,125.2c-9.9-11-24.3-18-40.3-18-29.9,0-54.2,24.3-54.2,54.2s24.3,54.2 54.2,54.2c16,0 30.4-7 40.3-18l134.5,125.2c-5.5,8.5-8.7,18.5-8.7,29.3 0,29.9 24.3,54.2 54.2,54.2 29.9,0 54.2-24.3 54.2-54.2 0.1-29.8-24.2-54.2-54.1-54.2zm0-360.6c18.4,2.13163e-14 33.4,15 33.4,33.4 0,18.4-15,33.4-33.4,33.4-18.4,0-33.4-15-33.4-33.4 0-18.5 15-33.4 33.4-33.4zm-220.4,257.5c-18.4,0-33.4-15-33.4-33.4s15-33.4 33.4-33.4c18.4,0 33.4,15 33.4,33.4s-15,33.4-33.4,33.4zm220.4,190.7c-18.4,0-33.4-15-33.4-33.4 0-18.4 15-33.4 33.4-33.4 18.4,0 33.4,15 33.4,33.4 5.68434e-14,18.5-15,33.4-33.4,33.4z"/>
  </g>
</svg>
