<?xml version='1.0' encoding='utf-8'?>
<!DOCTYPE svg PUBLIC '-//W3C//DTD SVG 1.1//EN' 'http://www.w3.org/Graphics/SVG/1.1/DTD/svg11.dtd'>
<svg version="1.1" xmlns="http://www.w3.org/2000/svg" viewBox="0 0 512 512" xmlns:xlink="http://www.w3.org/1999/xlink" enable-background="new 0 0 512 512">
  <g>
    <g fill="#231F20">
      <path d="m483.7,417.8h-325.4l-9.5-40.2h287.6c4.8,0 9-3.3 10.1-8l38.5-162.7c1.2-3.7-0.8-12.7-10.1-12.8h-76.7c-0.4-1.8-1.3-3.6-2.8-5.1l-6.8-6.8c0.9-2 1.7-4 2.5-6h9.6c5.8,0 10.4-4.7 10.4-10.4v-59.2c0-5.8-4.7-10.4-10.4-10.4h-9.6c-0.8-2-1.6-4-2.5-6l6.8-6.8c2-2 3.1-4.6 3.1-7.4 0-2.8-1.1-5.4-3.1-7.4l-41.9-41.9c-4.1-4.1-10.7-4.1-14.7,0l-6.8,6.8c-2-0.9-4-1.7-6-2.5v-9.6c0-5.8-4.7-10.4-10.4-10.4h-59.2c-5.8,0-10.4,4.7-10.4,10.4v9.6c-2,0.8-4,1.6-6,2.5l-6.8-6.8c-4.1-4.1-10.7-4.1-14.7,0l-41.9,41.9c-4.1,4.1-4.1,10.7 0,14.7l6.8,6.8c-0.9,2-1.7,4-2.5,6h-9.6c-5.8,0-10.4,4.7-10.4,10.4v59.2c0,5.8 4.7,10.4 10.4,10.4h9.6c0.8,2 1.6,4 2.5,6l-6.8,6.8c-1.4,1.4-2.4,3.2-2.8,5.1h-68.4l-21.7-91.7c-1.1-4.7-5.3-8-10.1-8h-45.3c-5.8,0-10.4,4.7-10.4,10.4 0,5.8 4.7,10.4 10.4,10.4h36.8l74.8,315.4c1.1,4.7 5.3,8 10.1,8h40.8c-6.4,6.6-10.4,15.7-10.4,25.6 0,20.3 16.5,36.8 36.8,36.8 20.3,0 36.8-16.5 36.8-36.8 0-9.9-4-19-10.4-25.6h120.9c-6.4,6.6-10.4,15.7-10.4,25.6 0,20.3 16.5,36.8 36.8,36.8 20.3,0 36.8-16.5 36.8-36.8 0-9.9-4-19-10.4-25.6h66.5c5.8,0 10.4-4.7 10.4-10.4-0.1-5.7-4.7-10.3-10.5-10.3zm-302.1-262.4v-38.4h6.6c4.6,0 8.7-3 10-7.4 1.7-5.8 4.1-11.3 6.9-16.6 2.2-4.1 1.4-9.1-1.8-12.3l-4.7-4.7 27.1-27.1 4.7,4.7c3.2,3.3 8.2,4 12.3,1.8 5.3-2.8 10.9-5.1 16.6-6.9 4.4-1.3 7.4-5.4 7.4-10v-6.6h38.4v6.6c0,4.6 3,8.7 7.4,10 5.7,1.7 11.3,4.1 16.6,6.9 4,2.1 9,1.4 12.3-1.8l4.7-4.7 27.2,27.1-4.7,4.7c-3.2,3.2-4,8.2-1.8,12.3 2.8,5.3 5.1,10.9 6.9,16.6 1.3,4.4 5.4,7.4 10,7.4h6.6v38.4h-6.6c-4.6,0-8.7,3-10,7.4-1.7,5.7-4.1,11.3-6.9,16.6-2.2,4.1-1.4,9.1 1.8,12.3l2.4,2.4h-170.1l2.4-2.4c3.2-3.2 4-8.2 1.8-12.3-2.8-5.3-5.1-10.9-6.9-16.6-1.3-4.4-5.4-7.4-10-7.4h-6.6zm-71.4,59.6h351.5l-33.6,141.7h-284.3l-33.6-141.7zm107,265.1c-8.8,0-15.9-7.1-15.9-15.9s7.1-15.9 15.9-15.9c8.8,0 15.9,7.1 15.9,15.9s-7.1,15.9-15.9,15.9zm173.7,0c-8.8,0-15.9-7.1-15.9-15.9s7.1-15.9 15.9-15.9c8.8,0 15.9,7.1 15.9,15.9s-7.2,15.9-15.9,15.9z"/>
      <path d="m285.9,177.3c22.7,0 41.1-18.4 41.1-41.1 0-22.7-18.4-41.1-41.1-41.1-22.7,0-41.1,18.4-41.1,41.1 2.84217e-14,22.7 18.5,41.1 41.1,41.1zm0-61.4c11.2,0 20.2,9.1 20.2,20.3 0,11.2-9.1,20.3-20.2,20.3-11.2,0-20.3-9.1-20.3-20.3 0.1-11.2 9.2-20.3 20.3-20.3z"/>
    </g>
  </g>
</svg>
