<?xml version='1.0' encoding='utf-8'?>
<!DOCTYPE svg PUBLIC '-//W3C//DTD SVG 1.1//EN' 'http://www.w3.org/Graphics/SVG/1.1/DTD/svg11.dtd'>
<svg version="1.1" xmlns="http://www.w3.org/2000/svg" viewBox="0 0 512 512" xmlns:xlink="http://www.w3.org/1999/xlink" enable-background="new 0 0 512 512">
  <g>
    <g fill="#231F20">
      <path d="m462.9,72c-2.5-5.2-8.8-7.3-14-4.7l-73.7,36.3h-60.2l-89.5-89.5c-4.1-4.1-10.7-4.1-14.7,0l-89.5,89.5h-62.8c-10.4,0.9-10.9,10-10.1,13.1l54.3,203.7c1.2,4.6 5.4,7.7 10.1,7.7h206.2l55,55h-315.5c-5.8,0-10.4,4.7-10.4,10.4 0,5.8 4.7,10.4 10.4,10.4h340.7c4.2,0 8-2.5 9.6-6.4 1.6-3.9 0.7-8.4-2.3-11.4l-71.6-71.6 51.6-193.4 71.6-35.1c5.2-2.6 7.3-8.8 4.8-14zm-244.8-35.8l67.4,67.4h-134.9l67.5-67.4zm97.2,271.1h-194.5l-48.8-182.9h292l-48.7,182.9z"/>
      <path d="m145.7,420.8c-22.1,0-40.1,18-40.1,40.1 0,22.1 18,40.1 40.1,40.1 22.1,0 40.1-18 40.1-40.1 2.84217e-14-22.1-18-40.1-40.1-40.1zm0,59.3c-10.6,0-19.2-8.6-19.2-19.3s8.6-19.3 19.2-19.3 19.3,8.6 19.3,19.3-8.7,19.3-19.3,19.3z"/>
      <path d="m290.4,420.8c-22.1,0-40.1,18-40.1,40.1 0,22.1 18,40.1 40.1,40.1 22.1,0 40.1-18 40.1-40.1 0-22.1-17.9-40.1-40.1-40.1zm0,59.3c-10.6,0-19.2-8.6-19.2-19.3s8.6-19.3 19.2-19.3 19.3,8.6 19.3,19.3-8.6,19.3-19.3,19.3z"/>
    </g>
  </g>
</svg>
