<?xml version='1.0' encoding='utf-8'?>
<!DOCTYPE svg PUBLIC '-//W3C//DTD SVG 1.1//EN' 'http://www.w3.org/Graphics/SVG/1.1/DTD/svg11.dtd'>
<svg version="1.1" xmlns="http://www.w3.org/2000/svg" viewBox="0 0 512 512" xmlns:xlink="http://www.w3.org/1999/xlink" enable-background="new 0 0 512 512">
  <g>
    <g fill="#231F20">
      <path d="m256,31.9c-106.6,0-193.3,86.7-193.3,193.3 0,58.1 25.8,112.6 70.8,149.5 2.4,2 3.8,4.9 3.8,8.1v79.8l44.6-51.7c2.8-3.2 7.2-4.4 11.3-3 20.5,7.1 41.6,10.6 62.7,10.6 106.6,0 193.3-86.7 193.3-193.3 0.1-106.6-86.6-193.3-193.2-193.3v-7.10543e-15zm-139.5,458.7v-103c-47.5-40.8-74.7-99.7-74.7-162.4 0-118.1 96.1-214.2 214.2-214.2s214.2,96.1 214.2,214.2c0,118.1-96.1,214.2-214.2,214.2-21.1,0-42.2-3.2-62.8-9.6l-58.4,67.6c-4,5-17,5.8-18.3-6.8z"/>
      <path d="m265.5,274.9c6.3-1.2 11.5-4.1 15.4-8.8 4-4.7 5.9-10.2 5.9-16.5 0-5.6-1.7-10.5-5-14.6-3.3-4.1-8.8-7.2-16.4-9.4v49.3h0.1zm-18.3-134.4c-5,1.7-8.9,4.5-11.9,8.6-2.9,4-4.4,8.5-4.4,13.4 0,4.5 1.3,8.6 4,12.4 2.7,3.8 6.8,6.9 12.3,9.3v-43.7zm0,132.7v-52.9c-16.5-4.7-28.6-11.9-36.3-21.4-7.7-9.6-11.6-21.2-11.6-34.8 0-13.8 4.4-25.4 13.1-34.8 8.7-9.4 20.3-14.8 34.8-16.2v-12.5h18.3v12.4c13.4,1.6 24,6.2 32,13.7 7.9,7.5 13,17.6 15.2,30.3l-32,4.2c-1.9-9.9-7-16.7-15.2-20.2v49.4c20.2,5.5 34,12.6 41.3,21.3 7.3,8.7 11,19.9 11,33.5 0,15.2-4.6,28.1-13.8,38.5-9.2,10.4-22,16.8-38.5,19.2v23.6h-18.3v-23c-14.6-1.8-26.4-7.2-35.5-16.3-9.1-9.1-14.9-21.9-17.4-38.5l33-3.5c1.3,6.7 3.9,12.5 7.6,17.4 3.6,4.8 7.7,8.4 12.3,10.6z"/>
      <g>
        <path d="m256,11c-118.1,0-214.2,96.1-214.2,214.2-1.42109e-14,62.7 27.1,121.6 74.6,162.4v103c0,4.4 2.7,8.2 6.8,9.8 1.2,0.4 2.4,0.7 3.6,0.7 3,0 5.9-1.3 7.9-3.6l58.4-67.6c20.6,6.4 41.7,9.6 62.8,9.6 118.1,0 214.2-96.1 214.2-214.2 0.1-118.2-96-214.3-214.1-214.3zm0,407.5c-21.1,0-42.2-3.6-62.7-10.6-4-1.4-8.5-0.2-11.3,3l-44.6,51.7v-79.8c0-3.1-1.4-6.1-3.8-8.1-45-36.9-70.8-91.4-70.8-149.5 0-106.6 86.7-193.3 193.3-193.3s193.3,86.7 193.3,193.3c-0.1,106.6-86.8,193.3-193.4,193.3z"/>
        <path d="m265.5,190.3v-49.4c8.2,3.5 13.2,10.3 15.2,20.2l32-4.2c-2.2-12.6-7.2-22.7-15.2-30.3-7.9-7.5-18.6-12.1-32-13.7v-12.5h-18.3v12.6c-14.5,1.4-26.1,6.8-34.8,16.2-8.7,9.4-13.1,21-13.1,34.8 0,13.6 3.9,25.2 11.6,34.8 7.7,9.6 19.8,16.7 36.3,21.4v52.9c-4.5-2.2-8.7-5.7-12.4-10.6-3.7-4.9-6.2-10.7-7.6-17.4l-33,3.5c2.5,16.6 8.3,29.4 17.4,38.5 9.1,9.1 20.9,14.5 35.5,16.3v23h18.3v-23.6c16.4-2.4 29.2-8.8 38.5-19.2 9.2-10.4 13.8-23.3 13.8-38.5 0-13.6-3.7-24.8-11-33.5-7.2-8.7-21-15.8-41.2-21.3zm-18.3-6.1c-5.5-2.4-9.6-5.5-12.3-9.3-2.7-3.8-4-8-4-12.4 0-4.9 1.5-9.3 4.4-13.4 2.9-4 6.9-6.9 11.9-8.6v43.7zm33.7,82c-4,4.7-9.1,7.6-15.4,8.8v-49.3c7.6,2.2 13,5.3 16.4,9.4 3.3,4.1 5,8.9 5,14.6-0.1,6.3-2.1,11.8-6,16.5z"/>
      </g>
    </g>
  </g>
</svg>
