<?xml version='1.0' encoding='utf-8'?>
<!DOCTYPE svg PUBLIC '-//W3C//DTD SVG 1.1//EN' 'http://www.w3.org/Graphics/SVG/1.1/DTD/svg11.dtd'>
<svg version="1.1" xmlns="http://www.w3.org/2000/svg" viewBox="0 0 512 512" xmlns:xlink="http://www.w3.org/1999/xlink" enable-background="new 0 0 512 512">
  <g>
    <g fill="#231F20">
      <path d="M21.4,432.5h76.1c5.8,0,10.4-4.7,10.4-10.4V116c0-5.8-4.7-10.4-10.4-10.4H21.4c-5.8,0-10.4,4.7-10.4,10.4    v306.1C11,427.9,15.7,432.5,21.4,432.5z M31.9,126.4h55.2v285.2H31.9V126.4z"/>
      <path d="m152.5,432.5h76.1c5.8,0 10.4-4.7 10.4-10.4v-212.8c0-5.8-4.7-10.4-10.4-10.4h-76.1c-5.8,0-10.4,4.7-10.4,10.4v212.8c-0.1,5.8 4.6,10.4 10.4,10.4zm10.4-212.7h55.2v191.9h-55.2v-191.9z"/>
      <path d="m283.5,432.5h76.1c5.8,0 10.4-4.7 10.4-10.4v-375.8c0-5.8-4.7-10.4-10.4-10.4h-76.1c-5.8,0-10.4,4.7-10.4,10.4v375.8c0,5.8 4.6,10.4 10.4,10.4zm10.4-375.8h55.2v355h-55.2v-355z"/>
      <path d="m490.6,152.7h-76.1c-5.8,0-10.4,4.7-10.4,10.4v259c0,5.8 4.7,10.4 10.4,10.4h76.1c5.8,0 10.4-4.7 10.4-10.4v-259c0-5.7-4.7-10.4-10.4-10.4zm-10.5,259h-55.2v-238.1h55.2v238.1z"/>
      <path d="m490.6,455.3h-469.2c-5.8,0-10.4,4.7-10.4,10.4s4.7,10.4 10.4,10.4h469.1c5.8,0 10.4-4.7 10.4-10.4s-4.6-10.4-10.3-10.4z"/>
    </g>
  </g>
</svg>
