<?xml version='1.0' encoding='utf-8'?>
<!DOCTYPE svg PUBLIC '-//W3C//DTD SVG 1.1//EN' 'http://www.w3.org/Graphics/SVG/1.1/DTD/svg11.dtd'>
<svg version="1.1" xmlns="http://www.w3.org/2000/svg" viewBox="0 0 512 512" xmlns:xlink="http://www.w3.org/1999/xlink" enable-background="new 0 0 512 512">
  <g>
    <g fill="#231F20">
      <path d="m374.2,32.7c-58.4,0-105.9,30.5-105.9,68.1 0,17 10.1,33.3 28.4,46 2.8,2 4.5,5.2 4.5,8.6v33.6l29.5-22.3c2.5-1.9 5.6-2.6 8.6-1.8 11.4,2.6 23.1,3.9 34.9,3.9 58.4,0 105.9-30.5 105.9-68.1s-47.5-68-105.9-68zm-93.9,177.2v-49.3c-21.2-16.3-32.9-37.4-32.9-59.9 0-49 56.9-88.9 126.8-88.9 69.9,0 126.8,39.9 126.8,88.9 0,49-56.9,88.9-126.8,88.9-11.7,0-23.4-1.2-34.8-3.4l-42.4,32c-4.1,3.5-15.6,3.3-16.7-8.3z"/>
      <path d="m32.2,479.3h298.6c-4.2-58.6-43.2-110.4-98.5-130.3l-41.9,66.3c-3.8,6-13.8,6-17.6,0l-42-66.3c-55.4,20-94.4,71.7-98.6,130.3zm309.4,20.9h-320.2c-5.8,0-10.4-4.7-10.4-10.4 0-74.6 49.8-141.7 121.2-163.2 4.5-1.4 9.3,0.4 11.8,4.4l37.5,59.3 37.5-59.3c2.5-4 7.3-5.8 11.8-4.4 72.5,21.8 121.2,87.4 121.2,163.2 0,5.7-4.6,10.4-10.4,10.4z"/>
      <path d="m181.5,189.6c-30.6,0-55.5,24.9-55.5,55.4s24.9,55.5 55.5,55.5 55.4-24.9 55.4-55.5-24.8-55.4-55.4-55.4zm0,131.8c-42.1,0-76.3-34.2-76.3-76.3 0-42.1 34.2-76.3 76.3-76.3 42.1,0 76.3,34.2 76.3,76.3 0,42-34.2,76.3-76.3,76.3z"/>
      <path d="m378.8,131.5c3-0.6 5.5-2 7.4-4.2 1.9-2.2 2.8-4.9 2.8-7.9 0-2.7-0.8-5-2.4-7-1.6-2-4.2-3.5-7.8-4.5v23.6zm-8.8-64.5c-2.4,0.8-4.3,2.2-5.7,4.1-1.4,1.9-2.1,4.1-2.1,6.4 0,2.1 0.6,4.1 1.9,6 1.3,1.8 3.3,3.3 5.9,4.5v-21h5.68434e-14zm0,63.7v-25.4c-7.9-2.3-13.7-5.7-17.4-10.3-3.7-4.6-5.5-10.1-5.5-16.7 0-6.6 2.1-12.2 6.3-16.7 4.2-4.5 9.7-7.1 16.7-7.8v-6h8.8v6c6.4,0.8 11.5,3 15.3,6.6 3.8,3.6 6.2,8.5 7.3,14.5l-15.3,2c-0.9-4.8-3.4-8-7.3-9.7v23.7c9.7,2.6 16.3,6 19.8,10.2 3.5,4.2 5.3,9.5 5.3,16.1 0,7.3-2.2,13.5-6.6,18.5-4.4,5-10.6,8.1-18.5,9.2v11.3h-8.9v-11c-7-0.8-12.7-3.5-17-7.8-4.4-4.4-7.2-10.5-8.4-18.5l15.8-1.7c0.6,3.2 1.9,6 3.6,8.4 1.8,2.3 3.8,4 6,5.1z"/>
      <g>
        <path d="m374.2,11.8c-69.9,0-126.8,39.9-126.8,88.9 0,22.4 11.6,43.5 32.9,59.9v49.3c0,4 2.2,7.6 5.8,9.3 1.5,0.7 3.1,1.1 4.7,1.1 2.2,0 4.4-0.7 6.3-2.1l42.4-32c11.4,2.3 23.1,3.4 34.8,3.4 69.9,0 126.8-39.9 126.8-88.9-0.1-49-57-88.9-126.9-88.9zm0,157c-11.8,0-23.5-1.3-34.9-3.9-3-0.7-6.1,0-8.6,1.8l-29.5,22.3v-33.6c0-3.4-1.7-6.6-4.5-8.6-18.3-12.7-28.4-29.1-28.4-46 0-37.5 47.5-68.1 105.9-68.1s105.9,30.5 105.9,68.1-47.5,68-105.9,68z"/>
        <path d="M230.8,326.6c-4.5-1.4-9.3,0.4-11.8,4.4l-37.5,59.3L144,331c-2.5-4-7.3-5.8-11.8-4.4    C60.8,348.1,11,415.2,11,489.8c0,5.8,4.7,10.4,10.4,10.4h320.2c5.8,0,10.4-4.7,10.4-10.4C352,414,303.3,348.4,230.8,326.6z     M32.2,479.3C36.4,420.7,75.4,369,130.8,349l42,66.3c3.8,6,13.8,6,17.6,0l41.9-66.3c55.4,20,94.4,71.8,98.5,130.3H32.2z"/>
        <path d="m181.5,321.4c42.1,0 76.3-34.2 76.3-76.3 0-42.1-34.2-76.3-76.3-76.3-42.1,0-76.3,34.2-76.3,76.3 0,42 34.2,76.3 76.3,76.3zm0-131.8c30.6,0 55.4,24.9 55.4,55.4s-24.9,55.5-55.4,55.5c-30.6,0-55.5-24.9-55.5-55.5s24.9-55.4 55.5-55.4z"/>
        <path d="m378.8,90.9v-23.7c3.9,1.7 6.3,4.9 7.3,9.7l15.3-2c-1-6.1-3.5-10.9-7.3-14.5-3.8-3.6-8.9-5.8-15.3-6.6v-6h-8.8v6c-6.9,0.7-12.5,3.3-16.7,7.8-4.2,4.5-6.3,10.1-6.3,16.7 0,6.5 1.8,12.1 5.5,16.7 3.7,4.6 9.5,8 17.4,10.3v25.4c-2.2-1.1-4.2-2.7-5.9-5.1s-3-5.1-3.6-8.4l-15.8,1.7c1.2,8 4,14.1 8.4,18.5 4.4,4.4 10,7 17,7.8v11h8.8v-11.3c7.9-1.1 14-4.2 18.5-9.2 4.4-5 6.6-11.2 6.6-18.5 0-6.5-1.8-11.9-5.3-16.1-3.5-4.2-10.1-7.6-19.8-10.2zm-8.8-2.9c-2.6-1.1-4.6-2.6-5.9-4.5-1.3-1.8-1.9-3.8-1.9-6 0-2.3 0.7-4.5 2.1-6.4 1.4-1.9 3.3-3.3 5.7-4.1v21zm16.2,39.3c-1.9,2.2-4.4,3.6-7.4,4.2v-23.6c3.6,1.1 6.3,2.6 7.8,4.5 1.6,2 2.4,4.3 2.4,7 0,3-0.9,5.7-2.8,7.9z"/>
      </g>
    </g>
  </g>
</svg>
