<?xml version='1.0' encoding='utf-8'?>
<!DOCTYPE svg PUBLIC '-//W3C//DTD SVG 1.1//EN' 'http://www.w3.org/Graphics/SVG/1.1/DTD/svg11.dtd'>
<svg version="1.1" xmlns="http://www.w3.org/2000/svg" viewBox="0 0 512 512" xmlns:xlink="http://www.w3.org/1999/xlink" enable-background="new 0 0 512 512">
  <g>
    <g fill="#231F20">
      <path d="m393.6,322c6.5,5.6 12.7,2 14.7,0 4.1-4.1 4.1-10.7 0-14.7l-160.2-160.2c-4.1-4.1-10.7-4.1-14.7,0-4.1,4.1-4.1,10.7 0,14.7l160.2,160.2z"/>
      <path d="m161.8,233.4c-4.1-4.1-10.7-4.1-14.7,0-4.1,4.1-4.1,10.7 0,14.7l160.2,160.2c6.5,5.6 12.7,2 14.7,0 4.1-4.1 4.1-10.7 0-14.7l-160.2-160.2z"/>
      <path d="m205,190.2c-4.1-4.1-10.7-4.1-14.7,0-4.1,4.1-4.1,10.7 0,14.7l160.2,160.2c6.5,5.6 12.7,2 14.7,0 4.1-4.1 4.1-10.7 0-14.7l-160.2-160.2z"/>
      <path d="m497.9,306l-272-272c-4.1-4.1-10.5-3.9-14.7,0-45.3,41.7-89-19.9-89-19.9-4.1-4.1-10.7-4.1-14.7,0l-93.4,93.4c-4.1,4.1-4.1,10.7 0,14.7 0,0 63.2,43.9 19.9,89-4,4.2-4.1,10.7 0,14.7l272,272c2,2 4.6,3.1 7.4,3.1 2.8,0 5.4-1.1 7.4-3.1l177.2-177.2c4-4 4-10.6-0.1-14.7zm-184.5,169.8l-257.9-257.8c39.8-57.1-19.4-103.2-19.4-103.2l78.6-78.6c0,0 44.3,59.3 103.2,19.4l257.8,257.8-162.3,162.4z"/>
      <path d="m119,84.9c-18.8,0-34.1,15.3-34.1,34.1 0,18.8 15.3,34.1 34.1,34.1s34.1-15.3 34.1-34.1c0-18.8-15.2-34.1-34.1-34.1zm0,47.4c-7.3,0-13.3-5.9-13.3-13.3 0-7.3 5.9-13.3 13.3-13.3s13.3,5.9 13.3,13.3c0,7.3-5.9,13.3-13.3,13.3z"/>
    </g>
  </g>
</svg>
