<?xml version='1.0' encoding='utf-8'?>
<!DOCTYPE svg PUBLIC '-//W3C//DTD SVG 1.1//EN' 'http://www.w3.org/Graphics/SVG/1.1/DTD/svg11.dtd'>
<svg version="1.1" xmlns="http://www.w3.org/2000/svg" viewBox="0 0 512 512" xmlns:xlink="http://www.w3.org/1999/xlink" enable-background="new 0 0 512 512">
  <g>
    <g fill="#231F20">
      <path d="m422.3,195.5h-20.1v-47.7c0-5.8-4.7-10.4-10.4-10.4h-370.4c-5.8,0-10.4,4.7-10.4,10.4v177.2c0,5.8 4.7,10.4 10.4,10.4h27.5c4.8,22.4 24.7,39.2 48.5,39.2 23.8,0 43.7-16.8 48.5-39.2h197.2c4.8,22.4 24.7,39.2 48.5,39.2 23.8,0 43.7-16.8 48.5-39.2h50.2c5.8,0 10.4-4.7 10.4-10.4v-50.8c0.3-43.4-35-78.7-78.4-78.7zm-324.8,158.3c-15.9,0-28.8-12.9-28.8-28.8s12.9-28.8 28.8-28.8c15.9,0 28.8,12.9 28.8,28.8s-12.9,28.8-28.8,28.8zm245.7-39.2h-197.2c0-0.1 0,0 0,0.1-4.8-22.4-24.7-39.3-48.6-39.3-23.8,0-43.8,16.9-48.5,39.3 0-0.1 0-0.1 0-0.1h-17v-156.4h349.5v118.3c-32,7.6-37.4,35.2-38.2,38.1zm48.6,39.2c-15.9,0-28.8-12.9-28.8-28.8s12.9-28.8 28.8-28.8c15.9,0 28.8,12.9 28.8,28.8s-12.9,28.8-28.8,28.8zm88.3-39.2h-39.8c-0.1-0.6-5.8-30.7-38.1-38.1v-60.2h20.1c31.9,0 57.9,26 57.9,57.9v40.4z"/>
      <path d="m181,176.6c-5.8,0-10.4,4.7-10.4,10.4v98.8c0,5.8 4.7,10.4 10.4,10.4 5.8,0 10.4-4.7 10.4-10.4v-98.8c0.1-5.8-4.6-10.4-10.4-10.4z"/>
      <path d="m279.2,176.6c-5.8,0-10.4,4.7-10.4,10.4v98.8c0,5.8 4.7,10.4 10.4,10.4 5.8,0 10.4-4.7 10.4-10.4v-98.8c0.1-5.8-4.6-10.4-10.4-10.4z"/>
    </g>
  </g>
</svg>
