<?xml version='1.0' encoding='utf-8'?>
<!DOCTYPE svg PUBLIC '-//W3C//DTD SVG 1.1//EN' 'http://www.w3.org/Graphics/SVG/1.1/DTD/svg11.dtd'>
<svg version="1.1" xmlns="http://www.w3.org/2000/svg" viewBox="0 0 512 512" xmlns:xlink="http://www.w3.org/1999/xlink" enable-background="new 0 0 512 512">
  <g>
    <g fill="#231F20">
      <path d="M148.4,167.8h58.2v157.8c0,5.8,4.7,10.4,10.4,10.4h78c5.8,0,10.4-4.7,10.4-10.4V167.8h58.2    c6.5,0.1,15.2-8.4,7.4-17.8L263.4,42.4c-2.2-2.2-8.3-5.7-14.7,0L141,150C132.8,159.3,142.3,168.4,148.4,167.8z M256,64.5    l82.4,82.4H295c-5.8,0-10.4,4.7-10.4,10.4v157.8h-57.2V157.4c0-5.8-4.7-10.4-10.4-10.4h-43.4L256,64.5z"/>
      <path d="m490.6,315.2h-61.3c-5.8,0-10.4,4.7-10.4,10.4v57.9h-325.8v-57.9c2.84217e-14-5.8-4.7-10.4-10.4-10.4h-61.3c-5.8,0-10.4,4.7-10.4,10.4v136.6c0,5.8 4.7,10.4 10.4,10.4h469.1c5.8,0 10.4-4.7 10.4-10.4v-136.6c0.1-5.7-4.6-10.4-10.3-10.4zm-10.5,136.6h-448.2v-115.7h40.4v57.9c0,5.8 4.7,10.4 10.4,10.4h346.6c5.8,0 10.4-4.7 10.4-10.4v-57.9h40.4v115.7z"/>
    </g>
  </g>
</svg>
