<?xml version='1.0' encoding='utf-8'?>
<!DOCTYPE svg PUBLIC '-//W3C//DTD SVG 1.1//EN' 'http://www.w3.org/Graphics/SVG/1.1/DTD/svg11.dtd'>
<svg version="1.1" xmlns="http://www.w3.org/2000/svg" viewBox="0 0 512 512" xmlns:xlink="http://www.w3.org/1999/xlink" enable-background="new 0 0 512 512">
  <g>
    <g fill="#231F20">
      <path d="m313.5,163.6c0-31.7-25.8-57.5-57.5-57.5-31.7,0-57.5,25.8-57.5,57.5 0,31.7 25.8,57.5 57.5,57.5 31.7,0 57.5-25.8 57.5-57.5zm-94.1,0c0-20.2 16.4-36.6 36.6-36.6 20.2,0 36.6,16.4 36.6,36.6 0,20.2-16.4,36.6-36.6,36.6-20.2,0.1-36.6-16.4-36.6-36.6z"/>
      <path d="m422.8,420.5h-29.8l-55.2-128.1c0.1,0 0.1-0.1 0.1-0.1 42.4-27.1 70.6-74.7 70.6-128.7 0.1-84.1-68.3-152.6-152.5-152.6-84.2,0-152.6,68.5-152.6,152.6 0,54 28.2,101.5 70.6,128.7 0,0 0.1,0.1 0.1,0.1l-55.1,128.1h-29.8c-38.6,0-70.1,31.4-70.1,70.1 0,5.8 4.7,10.4 10.4,10.4h452.8c5.8,0 10.4-4.7 10.4-10.4 0.1-38.7-31.3-70.1-69.9-70.1zm-298.6-256.9c1.42109e-14-72.6 59.1-131.7 131.8-131.7 72.6-7.10543e-15 131.8,59.1 131.8,131.8 0,72.6-59.1,131.8-131.8,131.8-72.7-0.1-131.8-59.2-131.8-131.9zm-83.1,316.5c4.8-22.1 24.5-38.8 48.1-38.8h36.6c4.2,0 7.9-2.5 9.6-6.3l57.1-132.7c19.3,8.9 40.8,13.8 63.5,13.8 22.6,0 44.1-5 63.5-13.8l57.1,132.7c1.6,3.8 5.4,6.3 9.6,6.3h36.6c23.6,0 43.3,16.6 48.1,38.8h-429.8z"/>
    </g>
  </g>
</svg>
